<?xml version="1.0" encoding="UTF-8"?>
<svg width="40px" height="40px" viewBox="0 0 40 40" version="1.1" xmlns="http://www.w3.org/2000/svg" xmlns:xlink="http://www.w3.org/1999/xlink">
    <!-- Generator: Sketch 57.1 (83088) - https://sketch.com -->
    <title>beta</title>
    <desc>Created with Sketch.</desc>
    <g id="Website" stroke="none" stroke-width="1" fill="none" fill-rule="evenodd">
        <g id="ICO" transform="translate(-700.000000, -4580.000000)" fill="#FFFFFF">
            <g id="Journey" transform="translate(209.000000, 2952.000000)">
                <g id="beta" transform="translate(471.000000, 1608.000000)">
                    <path d="M29.9999111,40.0001778 C32.6526222,40.0001778 35.1960444,41.0538667 37.0710222,42.9289778 C38.946,44.8040889 39.9998222,47.3473778 39.9998222,50.0000889 C39.9998222,52.6528 38.9461333,55.1962222 37.0710222,57.0712 C35.1959111,58.9461778 32.6527111,60 29.9999111,60 C27.3472,60 24.8037778,58.9463111 22.9288,57.0712 C21.0538222,55.1960889 20,52.6528 20,50.0000889 C20,47.3473778 21.0536889,44.8039556 22.9288,42.9289778 C24.8039111,41.054 27.3472,40.0001778 29.9999111,40.0001778 Z M52.1878667,42.1527556 L59.0140889,48.9789778 L54.3229778,48.9789778 C54.3229778,51.4808444 53.3281778,53.8818667 51.5590667,55.6509778 C49.8649604,57.344829 47.5961943,58.3270634 45.2111937,58.4092731 L44.8852889,58.4148871 C40.790029,58.4165877 40.7697433,56.8422802 42.1676108,56.778022 L42.2568,56.776 C44.3253778,56.7756889 46.308,55.9545333 47.7715556,54.4909778 C49.1602444,53.1024156 49.9708119,51.2436308 50.0483969,49.2884389 L50.0545333,48.9789778 L45.3634222,48.9789778 L52.1878667,42.1527556 Z M29.9999111,41.8506667 C27.8384,41.8524889 25.7672,42.7118222 24.2394222,44.2396444 C22.7116444,45.7674667 21.8522698,47.8386222 21.8505333,50.0000889 C21.8505333,52.1616 22.7081778,54.2345333 24.2376889,55.7623111 C25.7655556,57.2918222 27.8384,58.1494671 29.9999111,58.1494671 C32.1614222,58.1494671 34.2343556,57.2918222 35.7621333,55.7623111 C37.2916444,54.2344444 38.1492889,52.1616444 38.1492889,50.0000889 C38.1492889,47.8385333 37.2916444,45.7656 35.7621333,44.2360889 C34.2342667,42.7083111 32.1613778,41.8506667 29.9999111,41.8506667 Z M34.4545778,45.5453333 C36.9146667,48.0054222 36.9146667,51.9951111 34.4545778,54.4551111 C31.9944889,56.9152 28.0048,56.9152 25.5448,54.4551111 C23.0847111,51.9950222 23.0847111,48.0053333 25.5448,45.5453333 C28.0048889,43.0852444 31.9945778,43.0852444 34.4545778,45.5453333 Z M49.9999111,20 C52.6526222,20 55.1960444,21.0536889 57.0710222,22.9288 C58.946,24.8039111 59.9998222,27.3472 59.9998222,29.9999111 C59.9998222,32.6526222 58.9461333,35.1960444 57.0710222,37.0710222 C55.1959111,38.946 52.6526222,39.9998222 49.9999111,39.9998222 C47.3472,39.9998222 44.8037778,38.9461333 42.9288,37.0710222 C41.0538222,35.1959111 40,32.6526222 40,29.9999111 C40,27.3472 41.0536889,24.8037778 42.9288,22.9288 C44.8039111,21.0538222 47.3471111,20 49.9999111,20 Z M49.9999111,21.8505333 C47.8384,21.8505333 45.7654667,22.7081778 44.2376889,24.2359556 C42.7081778,25.7656 41.8505333,27.8384444 41.8505333,29.9999556 C41.8505333,32.1614667 42.7081778,34.2344 44.2376889,35.7621778 C45.7655556,37.2916889 47.8384444,38.1493333 49.9999111,38.1493333 C52.1614222,38.1475556 54.2326222,37.2882222 55.7604,35.7604 C57.2881778,34.2325778 58.1475511,32.1596889 58.1492889,29.9999556 C58.1492889,27.8384 57.2916444,25.7654667 55.7621333,24.2359556 C54.2342667,22.7081778 52.1614222,21.8505333 49.9999111,21.8505333 Z M35.1145333,21.5833778 C39.2951111,21.5833778 39.2291556,23.224 37.7430222,23.224 L37.7430222,23.224 C35.6744444,23.2243156 33.6918222,24.0454711 32.2282667,25.5090267 C30.7664889,26.9706711 29.9452889,28.9533378 29.9452889,31.0210267 L29.9452889,31.0210267 L34.6364,31.0210267 L27.8119556,37.8472489 L20.9857338,31.0210267 L25.6768444,31.0210267 C25.6768444,28.5174267 26.6716444,26.1181378 28.4407556,24.3490267 C30.2118667,22.5781822 32.6110667,21.5851156 35.1145333,21.5851156 L35.1145333,21.5851156 Z M49.9999111,23.6995556 C53.4791556,23.6995556 56.3003556,26.5207556 56.3003556,30 C56.3003556,33.4791556 53.4791556,36.3004444 49.9999111,36.3004444 C46.5206667,36.3004444 43.6994667,33.4792444 43.6994667,30 C43.6994667,26.5207556 46.5206667,23.6995556 49.9999111,23.6995556 Z"></path>
                </g>
            </g>
        </g>
    </g>
</svg>