<?xml version="1.0" encoding="UTF-8"?>
<svg width="40px" height="40px" viewBox="0 0 40 40" version="1.1" xmlns="http://www.w3.org/2000/svg" xmlns:xlink="http://www.w3.org/1999/xlink">
    <!-- Generator: Sketch 57.1 (83088) - https://sketch.com -->
    <title>build</title>
    <desc>Created with Sketch.</desc>
    <g id="Website" stroke="none" stroke-width="1" fill="none" fill-rule="evenodd">
        <g id="ICO" transform="translate(-700.000000, -3620.000000)" fill="#FFFFFF">
            <g id="Journey" transform="translate(209.000000, 2952.000000)">
                <g id="build" transform="translate(471.000000, 648.000000)">
                    <path d="M51.0892075,41.0441413 C51.4681131,41.0441413 51.7797081,41.2511897 51.8956272,41.6029459 L51.9244043,41.7127517 L52.3428051,42.882419 C52.4258434,43.1329355 52.5935125,43.3834639 52.9272824,43.466451 C53.4287214,43.632401 53.9301604,43.7999545 54.3485612,44.0504829 C54.5679407,44.1970817 54.8508965,44.2154065 55.0861701,44.1054575 L55.183758,44.0504829 L56.1035977,43.466451 C56.4070139,43.2386978 56.780383,43.2865773 57.0341299,43.4853907 L57.1064758,43.549438 L57.775596,44.3010234 C57.9984578,44.5237154 58.0232202,44.8787858 57.9082122,45.1891796 L57.8586464,45.3031373 L57.274169,46.2222761 C57.1064999,46.4728046 57.1064999,46.8063081 57.274169,47.0568366 C57.5248765,47.4749185 57.6909772,47.9759754 57.8586464,48.4770323 C57.9313049,48.6962342 58.0687589,48.9154453 58.3255869,49.0224179 L58.4431237,49.0610643 L59.4459656,49.2285776 C59.8294886,49.3806985 60.0721229,49.674948 59.9807506,49.9798251 L59.9474047,50.0631381 L59.9458362,51.0652519 C59.9458362,51.4438688 59.73863,51.7552264 59.3866055,51.8710572 L59.2767159,51.8998124 L58.1907996,52.1503408 C57.9400921,52.2333158 57.6893726,52.4008573 57.6063223,52.7343728 C57.4402457,53.2354297 57.2725644,53.7364866 57.0218449,54.1545685 C56.8751344,54.373781 56.8567956,54.6565211 56.9668285,54.8916155 L57.0218449,54.989129 L57.6063223,55.9082678 C57.8342491,56.2114524 57.7863331,56.5845369 57.5873681,56.8380905 L57.5232719,56.9103813 L56.8541517,57.5789916 C56.6312899,57.8016836 56.2759488,57.8264272 55.9653182,57.7115068 L55.8512736,57.6619787 L54.9314339,57.0779467 C54.6807144,56.9104053 54.3469566,56.9104053 54.096237,57.0779467 C53.6778363,57.3284632 53.1763973,57.4944373 52.6749583,57.6619787 C52.4555892,57.7345819 52.236211,57.8719311 52.1291568,58.1285634 L52.0904809,58.2460107 L51.8397614,59.3310996 C51.7642721,59.7111742 51.4815765,59.9527747 51.1164505,59.993561 L51.0045646,59.9997101 L50.0016865,59.9997101 C49.622781,59.9997101 49.3111859,59.7926618 49.1952668,59.4409054 L49.1664897,59.3310996 L48.9157702,58.2460107 C48.8327319,57.9954942 48.6650627,57.7449658 48.3312929,57.6619787 C47.8298538,57.4960286 47.3284148,57.3284752 46.9100141,57.0779467 C46.6906345,56.931348 46.4076787,56.9130232 46.1724051,57.0229722 L46.0748172,57.0779467 L45.1549775,57.6619787 C44.8515613,57.8897319 44.4781923,57.8418523 44.2244453,57.643039 L44.1520994,57.5789916 L43.4829792,56.9103813 C43.2601174,56.6876893 43.235355,56.3326189 43.350363,56.0222254 L43.3999289,55.9082678 L43.9844062,54.989129 C44.1520754,54.7386005 44.1520754,54.405097 43.9844062,54.1545685 C43.7336987,53.7364866 43.567598,53.2354297 43.3999289,52.7343728 C43.3272703,52.5151709 43.1898163,52.2959598 42.9329884,52.1889872 L42.8154515,52.1503408 L41.7295352,51.8998124 C41.3491709,51.8243805 41.1073861,51.5419003 41.0665687,51.1770526 L41.0604149,51.0652519 L41.0604149,50.0631381 C41.0604149,49.6845212 41.2676212,49.3731636 41.6196457,49.2573328 L41.7295352,49.2285776 L42.9000944,48.9780492 C43.1508019,48.8950741 43.4015214,48.7275327 43.4845718,48.3940172 C43.6506484,47.8929603 43.8183296,47.3919033 44.0690491,46.9738214 C44.2157596,46.754609 44.2340984,46.4718689 44.1240655,46.2367745 L44.0690491,46.139261 L43.4845718,45.2201222 C43.2566449,44.9169372 43.304561,44.5438527 43.5035259,44.290299 L43.5676221,44.2180083 L44.2367423,43.4648596 C44.4596041,43.2421676 44.8149453,43.2174241 45.1255758,43.3323445 L45.2396204,43.3818726 L46.1594601,43.9659045 C46.4101797,44.1334459 46.7439375,44.1334459 46.994657,43.9659045 C47.4130577,43.7153881 47.9144967,43.549414 48.4159358,43.3818726 C48.6353048,43.3092694 48.8546831,43.1719201 48.9617372,42.9152879 L49.0004131,42.7978406 L49.2511326,41.7127517 C49.326622,41.3326772 49.6093175,41.0910767 49.9744435,41.0502904 L50.0863294,41.0441413 L51.0892075,41.0441413 Z M50.5877805,45.4690753 C47.745223,45.4690753 45.405709,47.8084099 45.405709,50.6471981 C45.405709,53.4875896 47.7468276,55.8253208 50.5877805,55.8253208 C53.5133764,55.8253208 55.8529023,53.4875495 55.769852,50.6471981 C55.769852,47.8068065 53.4287334,45.4690753 50.5877805,45.4690753 Z M52.0074787,19.9997101 C53.2065721,19.9997101 54.1002991,20.9165926 54.1757477,22.0199607 L54.1809161,22.1715073 L54.1824846,42.0478345 C54.0707051,41.991465 53.9596228,41.9726751 53.8483081,41.9418231 L53.6810455,41.8802931 L53.5133764,41.2962612 C53.2751928,40.2639035 52.3581862,39.4590948 51.2634727,39.3811949 L51.0892195,39.3750085 L51.0892195,27.933674 L23.0916724,27.933674 L23.0916724,50.7317645 L39.471479,50.7317645 L39.471479,51.06528 C39.471479,52.1764639 40.1503021,53.1364309 41.2217927,53.4444465 L41.3941968,53.4875896 L41.9803149,53.738094 C41.9803149,53.8721272 42.0344709,54.0051572 42.0986551,54.1387891 L42.147984,54.239151 L22.1734613,54.239151 C20.974368,54.239151 20.0806409,53.3222831 20.0051922,52.2189163 L20.0000239,52.0673698 L20.0000239,22.1715073 C20.0000239,20.9733277 20.8416165,20.080267 22.0118895,20.0048745 L22.1734613,19.9997101 L52.0074787,19.9997101 Z M50.5877805,47.4749064 C52.3428171,47.4749064 53.7640959,48.8105639 53.7640959,50.6488015 C53.7640959,52.4025007 52.3428171,53.8226965 50.5877805,53.8226965 C48.8327439,53.8226965 47.4114651,52.4025007 47.4114651,50.6488015 C47.4114651,48.8951022 48.8327439,47.4749064 50.5877805,47.4749064 Z M34.7924512,45.9717356 C35.3769285,45.9717356 35.8783675,46.4727926 35.8783675,47.0568245 C35.8783675,47.601921 35.4415584,48.074737 34.9081155,48.1353565 L34.7924512,48.1419134 L26.435669,48.1419134 C25.8511916,48.1419134 25.3497526,47.6408565 25.3497526,47.0568245 C25.3497526,46.511728 25.7865617,46.038912 26.3200046,45.9782925 L26.435669,45.9717356 L34.7924512,45.9717356 Z M34.7924512,40.8765879 C35.3769285,40.8765879 35.8783675,41.3776448 35.8783675,41.9616768 C35.8783675,42.5067733 35.4415584,42.9795893 34.9081155,43.0402088 L34.7924512,43.0467657 L26.435669,43.0467657 C25.8511916,43.0467657 25.3497526,42.5457088 25.3497526,41.9616768 C25.3497526,41.4165803 25.7865617,40.9437643 26.3200046,40.8831448 L26.435669,40.8765879 L34.7924512,40.8765879 Z M47.3284268,30.0208888 C48.0805854,30.0208888 48.7497056,30.6894992 48.7497056,31.4410846 L48.7497056,31.4410846 L48.7497056,38.6234351 C48.7497056,39.3750205 48.0805854,40.0436309 47.3284268,40.0436309 L47.3284268,40.0436309 L39.5561219,40.0436309 C38.8039634,40.0436309 38.1348432,39.3750205 38.1348432,38.6234351 L38.1348432,38.6234351 L38.1348432,31.4410846 C38.1348432,30.6894992 38.8039634,30.0208888 39.5561219,30.0208888 L39.5561219,30.0208888 Z M26.7694268,29.9378777 L33.7065348,29.9363104 C34.4144488,29.9363104 35.0488063,30.5285743 35.120987,31.224854 L35.1278136,31.3565062 L35.1278136,36.4500505 C35.1278136,37.157425 34.5350981,37.7913027 33.8382874,37.8634289 L33.7065348,37.8702503 L26.7694268,37.8702503 C26.0615129,37.8702503 25.4271554,37.3528716 25.3549746,36.5962251 L25.348148,36.4516178 L25.348148,31.3580735 C25.348148,30.650699 25.9408635,30.0168249 26.6376742,29.9446991 L26.7694268,29.9378777 L33.7065348,29.9363104 Z M50.5047422,22.2545064 C49.6679408,22.2545064 49.0834634,22.9231167 49.0834634,23.6747021 C49.0834634,24.4262875 49.7525837,25.0948979 50.5047422,25.0948979 C51.2569007,25.0948979 51.926021,24.4262875 51.926021,23.6747021 C51.926021,22.9231167 51.2569007,22.2545064 50.5047422,22.2545064 Z M45.8241098,22.2545064 C45.0719512,22.2545064 44.402831,22.9231167 44.402831,23.6747021 C44.402831,24.4262875 45.0719512,25.0948979 45.8241098,25.0948979 C46.5762683,25.0948979 47.2453885,24.4262875 47.2453885,23.6747021 C47.2453885,22.9231167 46.5762683,22.2545064 45.8241098,22.2545064 Z M38.4702056,22.2545064 L23.6777547,22.2545064 C22.9255962,22.2545064 22.2564759,22.9231167 22.2564759,23.6747021 C22.2564759,24.4602047 22.8491915,25.023754 23.5460021,25.0873359 L23.6777547,25.0933306 L38.4702056,25.0948979 C39.2223641,25.0948979 39.8914844,24.4262875 39.8914844,23.6747021 C39.8914844,22.9231167 39.2223641,22.2545064 38.4702056,22.2545064 Z"></path>
                </g>
            </g>
        </g>
    </g>
</svg>