<?xml version="1.0" encoding="UTF-8"?>
<svg width="80px" height="81px" viewBox="0 0 80 81" version="1.1" xmlns="http://www.w3.org/2000/svg" xmlns:xlink="http://www.w3.org/1999/xlink">
    <!-- Generator: Sketch 57.1 (83088) - https://sketch.com -->
    <title>communicate_directly</title>
    <desc>Created with Sketch.</desc>
    <g id="Website" stroke="none" stroke-width="1" fill="none" fill-rule="evenodd">
        <g id="Homepage_Prelaunch" transform="translate(-146.000000, -1756.000000)" fill="#3B3D47" fill-rule="nonzero">
            <g id="Why?" transform="translate(146.000000, 1566.000000)">
                <path d="M61.8559417,241.755144 C62.2999267,241.755144 62.7458114,241.822869 63.2588577,241.967853 C63.3081054,241.981801 63.3482971,242.011013 63.3937301,242.031877 C64.2334595,241.873124 65.0961075,241.780423 65.9808502,241.780423 C73.7109375,241.780423 80,248.120641 80,255.913556 C80,263.706472 73.7109375,270.046208 65.9808482,270.046208 C65.0656795,270.046208 64.1728343,269.950883 63.3060817,269.781284 C62.9082119,269.901608 62.5218556,269.982486 62.1408178,270.010025 L61.8559398,270.02046 L13.4232082,270.02046 C10.6262145,270.02046 8.3373191,267.785775 8.22462245,264.995718 L8.2202739,264.780031 L8.2202739,248.29328 L0.6731138,243.559822 C0.3044014,243.328514 0.1329079,242.880682 0.2534294,242.461943 C0.362562673,242.081706 0.6886214,241.808678 1.07376997,241.762179 L1.1909294,241.755144 L61.8559417,241.755144 Z M65.9808502,243.733898 C59.3264084,243.733898 53.9129181,249.197523 53.9129181,255.913556 C53.9129181,262.629109 59.3264084,268.092734 65.9808502,268.092734 C72.6352921,268.092734 78.0487823,262.629109 78.0487823,255.913556 C78.0487823,249.197523 72.635292,243.733898 65.9808502,243.733898 Z M38.8095474,261.612309 L17.9730377,261.612309 C17.4342613,261.612309 16.997427,262.049643 16.997427,262.589046 C16.997427,263.089914 17.3740851,263.502785 17.859268,263.559212 L17.9730377,263.565783 L38.8095474,263.565783 C39.3483238,263.565783 39.7851562,263.128442 39.7851562,262.589046 C39.7851562,262.049643 39.3483238,261.612309 38.8095474,261.612309 Z M44.1606331,261.612309 L43.4313088,261.612309 C42.8925324,261.612309 42.4556962,262.049643 42.4556962,262.589046 C42.4556962,263.089914 42.832356,263.502785 43.3175391,263.559212 L43.4313088,263.565783 L44.1606331,263.565783 C44.6994095,263.565783 45.1362419,263.128442 45.1362419,262.589046 C45.1362419,262.049643 44.6994095,261.612309 44.1606331,261.612309 Z M69.6503448,255.765902 C69.7880172,255.765902 69.9275894,255.794996 70.0605011,255.856522 C70.5492554,256.083537 70.7617188,256.66395 70.5349655,257.153751 C69.7298965,258.891179 67.9825668,260.014333 66.0832672,260.014333 C64.1839752,260.014333 62.4366455,258.891178 61.6315765,257.153751 C61.4048233,256.66395 61.617279,256.083537 62.1060409,255.856522 C62.5943222,255.630461 63.1745452,255.842215 63.4017715,256.331535 C63.8881454,257.382195 64.9409332,258.060858 66.0832672,258.060858 C67.2256088,258.060858 68.278389,257.382195 68.7647705,256.331535 C68.930069,255.975273 69.2821045,255.765902 69.6503448,255.765902 Z M44.1606331,254.923941 L17.9730377,254.923941 C17.4342613,254.923941 16.997427,255.361275 16.997427,255.900678 C16.997427,256.401546 17.3740851,256.814417 17.859268,256.870844 L17.9730377,256.877416 L44.1606331,256.877416 C44.6994095,256.877416 45.1362419,256.440074 45.1362419,255.900678 C45.1362419,255.361275 44.6994095,254.923941 44.1606331,254.923941 Z M72.1190338,252.469513 C72.6699011,252.469513 73.1164673,252.919946 73.1164673,253.475582 C73.1164673,254.031219 72.6699011,254.481651 72.1190338,254.481651 C71.5681665,254.481651 71.1216003,254.031219 71.1216003,253.475582 C71.1216003,252.919946 71.5681665,252.469513 72.1190338,252.469513 Z M59.8429031,252.469513 C60.3937704,252.469513 60.8403366,252.919946 60.8403366,253.475582 C60.8403366,254.031219 60.3937704,254.481651 59.8429031,254.481651 C59.2920358,254.481651 58.8454696,254.031219 58.8454696,253.475582 C58.8454696,252.919946 59.2920358,252.469513 59.8429031,252.469513 Z M44.1606331,248.236047 L25.1886444,248.236047 C24.649868,248.236047 24.2130318,248.673388 24.2130318,249.212792 C24.2130318,249.713659 24.5896916,250.126531 25.0748747,250.182957 L25.1886444,250.189529 L44.1606331,250.189529 C44.6994095,250.189529 45.1362419,249.752187 45.1362419,249.212792 C45.1362419,248.673388 44.6994095,248.236047 44.1606331,248.236047 Z M78.9086304,190.046208 C79.3435593,190.046208 79.7260895,190.334747 79.8461304,190.753008 C79.9556954,191.133679 79.8239257,191.538393 79.5220422,191.782617 L79.426445,191.850885 L71.6206207,196.746021 L71.6206207,212.988586 C71.6206207,215.795802 69.4117974,218.092738 66.6528041,218.208684 L66.433876,218.213276 L18.1816883,218.213276 C17.6689929,218.213276 17.1541538,218.111035 16.6443767,217.947867 C15.7779159,218.118009 14.8851356,218.213276 13.9700832,218.213276 C6.267149,218.213276 1.3500312e-13,211.895479 1.3500312e-13,204.129742 C1.3500312e-13,196.364005 6.267149,190.046208 13.9700813,190.046208 C14.8851337,190.046208 15.777914,190.141473 16.6443748,190.311616 C17.0691891,190.175643 17.4975186,190.081981 17.9251935,190.054537 L18.1816864,190.046208 L78.9086304,190.046208 Z M13.9700832,191.999685 C7.3427963,191.999685 1.9512194,197.441376 1.9512194,204.129742 C1.9512194,210.818108 7.3427962,216.259798 13.9700831,216.259798 C15.1168307,216.259798 16.2225493,216.086976 17.2737235,215.782876 C17.5069674,215.71551 17.7352675,215.638311 17.9620799,215.55735 C18.1536425,215.488911 18.346691,215.423574 18.5337275,215.345775 C18.70129,215.276026 18.8630789,215.195783 19.026594,215.118702 C19.192192,215.040723 19.3582667,214.963761 19.5197581,214.878511 C19.6923236,214.78718 19.8600062,214.688456 20.0273322,214.589137 C20.1664332,214.506751 20.304819,214.423529 20.4402865,214.335712 C20.61845,214.21994 20.7929209,214.099397 20.9642962,213.974623 C21.0736236,213.895273 21.1808661,213.813483 21.2874545,213.730559 C21.4729422,213.585692 21.6561068,213.438027 21.8326033,213.282845 C21.905012,213.219356 21.9745024,213.152827 22.0453642,213.087665 C22.2443083,212.90423 22.4412268,212.718468 22.6274298,212.522273 C22.6399344,212.509097 22.6514281,212.495088 22.6638716,212.481855 C23.5576056,211.531823 24.2973517,210.438657 24.8514899,209.247244 C24.8693541,209.208613 24.8890647,209.170997 24.9065703,209.132126 C25.0189361,208.88371 25.1192702,208.629212 25.2151412,208.372805 C25.2500342,208.278971 25.2851104,208.185315 25.3177413,208.090409 C25.3962821,207.863632 25.4670829,207.633695 25.5322875,207.401552 C25.5715254,207.260562 25.6070174,207.118021 25.6412543,206.974944 C25.6902045,206.77273 25.737068,206.569859 25.7757109,206.364305 C25.8131064,206.162805 25.8410338,205.958206 25.8683661,205.753366 C25.8901023,205.59324 25.9163016,205.434304 25.9316062,205.272509 C25.9666785,204.895859 25.9889487,204.515453 25.9889487,204.129742 C25.9889487,203.744031 25.9666785,203.363625 25.9316062,202.986975 C25.9163016,202.825178 25.8901022,202.666244 25.8683661,202.506116 C25.8410338,202.301279 25.8131064,202.096679 25.7757109,201.895179 C25.7370681,201.689625 25.6902045,201.486754 25.6412543,201.284538 C25.6070174,201.141463 25.5715255,200.998922 25.5322875,200.857932 C25.4670218,200.62573 25.3962211,200.395734 25.3177413,200.168898 C25.2851676,200.074108 25.2500953,199.980631 25.2152595,199.886975 C25.1192702,199.630331 25.0189971,199.375656 24.9064521,199.127058 C24.8890647,199.088487 24.8695335,199.051169 24.8517875,199.012836 C24.359166,197.953538 23.719846,196.972006 22.9560757,196.099603 L22.6638717,195.777629 L22.6274299,195.73721 C22.4412269,195.541016 22.2443084,195.355255 22.0453643,195.171818 C21.9745025,195.106658 21.9050121,195.040127 21.8326034,194.976638 C21.6561069,194.821459 21.4729423,194.673792 21.2874546,194.528926 C21.1808662,194.446001 21.0736236,194.364209 20.9642963,194.28486 C20.792921,194.160085 20.6184501,194.039544 20.4402866,193.92377 C20.3048191,193.835956 20.1664333,193.752734 20.0273323,193.670345 C19.8599472,193.570966 19.6922036,193.472184 19.5196381,193.380853 C19.3587437,193.295842 19.1931458,193.219236 19.0280228,193.141497 C18.8638535,193.064057 18.7014103,192.983457 18.5331326,192.913409 C18.3469296,192.835968 18.1547737,192.770928 17.9640465,192.702788 C17.7365189,192.621592 17.5076218,192.544151 17.2737236,192.476607 C16.2225494,192.172509 15.1168308,191.999685 13.9700832,191.999685 Z M61.7987823,209.816094 L61.0718383,209.816094 C60.5330581,209.816094 60.0962295,210.253432 60.0962295,210.792831 C60.0962295,211.293702 60.4728827,211.706572 60.9580679,211.762998 L61.0718383,211.76957 L61.7987823,211.76957 C62.3375549,211.76957 62.7743911,211.332231 62.7743911,210.792831 C62.7743911,210.253432 62.3375549,209.816094 61.7987823,209.816094 Z M56.4677047,209.816094 L35.7088432,209.816094 C35.170063,209.816094 34.7332306,210.253432 34.7332306,210.792831 C34.7332306,211.293702 35.1098871,211.706572 35.5950728,211.762998 L35.7088432,211.76957 L56.4677047,211.76957 C57.0064773,211.76957 57.4433135,211.332231 57.4433135,210.792831 C57.4433135,210.253432 57.0064773,209.816094 56.4677047,209.816094 Z M17.995903,202.626004 C18.5346794,202.626004 18.9715137,203.063342 18.9715137,203.602741 C18.9715137,206.323587 16.7735329,208.537464 14.0720272,208.537464 C11.3705215,208.537464 9.1725426,206.323587 9.1725426,203.602741 C9.1725426,203.10187 9.54919911,202.689001 10.0343817,202.632576 L10.1481514,202.626004 L17.995903,202.626004 Z M16.857851,204.57948 L11.2862034,204.57948 C11.6873093,205.74508 12.7843933,206.583987 14.0720272,206.583987 C15.3596611,206.583987 16.4567451,205.74508 16.857851,204.57948 Z M61.7987823,203.153003 L35.7088432,203.153003 C35.170063,203.153003 34.7332306,203.590342 34.7332306,204.129742 C34.7332306,204.630613 35.1098871,205.043482 35.5950728,205.099907 L35.7088432,205.106479 L61.7987823,205.106479 C62.3375549,205.106479 62.7743911,204.669141 62.7743911,204.129742 C62.7743911,203.590342 62.3375549,203.153003 61.7987823,203.153003 Z M7.855032,200.698803 C8.40382747,200.698803 8.8487141,201.147541 8.8487141,201.701086 C8.8487141,202.254632 8.40382747,202.70337 7.855032,202.70337 C7.30623653,202.70337 6.8613499,202.254632 6.8613499,201.701086 C6.8613499,201.147541 7.30623653,200.698803 7.855032,200.698803 Z M20.0851517,200.698803 C20.6339636,200.698803 21.0788636,201.147541 21.0788636,201.701086 C21.0788636,202.254632 20.6339636,202.70337 20.0851517,202.70337 C19.5363398,202.70337 19.0914398,202.254632 19.0914398,201.701086 C19.0914398,201.147541 19.5363398,200.698803 20.0851517,200.698803 Z M61.7987823,196.489914 L42.8977699,196.489914 C42.3589935,196.489914 41.9221611,196.927251 41.9221611,197.466651 C41.9221611,197.967524 42.2988176,198.380392 42.7840002,198.436818 L42.8977699,198.44339 L61.7987823,198.44339 C62.3375549,198.44339 62.7743911,198.006052 62.7743911,197.466651 C62.7743911,196.927251 62.3375549,196.489914 61.7987823,196.489914 Z" id="communicate_directly"></path>
            </g>
        </g>
    </g>
</svg>