<?xml version="1.0" encoding="UTF-8"?>
<svg width="30px" height="46px" viewBox="0 0 30 46" version="1.1" xmlns="http://www.w3.org/2000/svg" xmlns:xlink="http://www.w3.org/1999/xlink">
    <!-- Generator: Sketch 57.1 (83088) - https://sketch.com -->
    <title>concept</title>
    <desc>Created with Sketch.</desc>
    <g id="Website" stroke="none" stroke-width="1" fill="none" fill-rule="evenodd">
        <g id="ICO" transform="translate(-705.000000, -3137.000000)" fill="#FFFFFF">
            <g id="Journey" transform="translate(209.000000, 2952.000000)">
                <g id="concept" transform="translate(471.000000, 168.000000)">
                    <path d="M46.980149,55.4648427 L46.980149,57.204049 C46.980149,58.5748437 45.9649334,59.7336121 44.5736644,59.9435309 L44.1454277,61.5242459 C43.9323522,62.3681361 43.1302121,63 42.2193844,63 L37.8346623,63 C36.9259737,63 36.1238121,62.419562 35.9086189,61.5242459 L35.4803823,59.9435309 C34.1434464,59.733591 33.0738976,58.5727361 33.0738976,57.204049 L33.0738976,55.4648427 C33.0738976,54.5159931 33.8217261,53.7791698 34.7847478,53.7791698 L45.2673951,53.7791698 C46.2304168,53.7791698 46.9803309,54.518048 46.9803309,55.4648427 L46.980149,55.4648427 Z M36.819436,28.6464579 C35.0542527,30.3856643 35.0542527,33.2301055 36.819436,35.0230561 C38.5846192,36.7622624 41.4715452,36.7622624 43.2912754,35.0230561 C45.0564587,33.2838497 45.0564587,30.4394085 43.2912754,28.6464579 C41.4718126,26.8558257 38.5827475,26.8558257 36.819436,28.6464579 Z M39.9194695,17.0008149 C31.5780588,17.0543273 24.9457871,23.7457193 25.0003341,31.9659562 C25.0546457,35.8642064 26.6046572,39.4474784 29.172002,42.0819955 C31.1502394,44.0846541 32.4349813,46.7191766 32.8610895,49.4586584 C33.074165,50.6174268 34.0914984,51.5127429 35.3219073,51.5127429 L44.6259118,51.5127429 C45.8563207,51.5127429 46.8715364,50.6174268 47.0867296,49.4586584 C47.5149662,46.7191766 48.7975798,44.1358692 50.7758171,42.0819955 C53.3953559,39.4474731 54.999679,35.8128859 54.999679,31.807358 C55.0539907,23.5865941 48.2085793,16.9491783 39.9195765,17 L39.9194695,17.0008149 Z M49.6539674,33.3348541 L48.3170315,33.3348541 C48.103956,34.4421966 47.6757301,35.4960055 47.0344286,36.4427475 L47.9974503,37.3915971 C48.3191492,37.7085618 48.3191492,38.2869133 47.9974503,38.603899 L47.0344286,39.5527486 C46.7127298,39.8697133 46.12574,39.8697133 45.8040198,39.5527486 L44.8953312,38.6574325 C43.9323095,39.3428299 42.8627607,39.764775 41.741018,39.9746937 L41.741018,41.2919549 C41.741018,41.765347 41.3670931,42.1872711 40.8323294,42.1872711 L39.4389747,42.1872711 C38.9585121,42.1872711 38.5302861,41.8188489 38.5302861,41.2919549 L38.5302861,40.0282272 C37.4064043,39.8182874 36.3368556,39.3963633 35.3216399,38.710966 L34.4129513,39.6062821 C34.0912524,39.9232468 33.5042627,39.9232468 33.1825424,39.6062821 L32.2195207,38.6574325 C31.8978218,38.3404678 31.8978218,37.7621164 32.2195207,37.4451306 L33.1282093,36.5498145 C32.4325748,35.6009649 32.0043275,34.4957301 31.7912734,33.3883876 L30.5086705,33.3883876 C30.0282078,33.3883876 29.5999819,33.0199654 29.5999819,32.4930715 L29.5999819,31.1222768 C29.5999819,30.6488847 29.9739069,30.2269606 30.5086705,30.2269606 L31.8456065,30.2269606 C32.058682,29.1196182 32.4869079,28.0658092 33.1825424,27.1190672 L32.2738538,26.2237511 C31.9521549,25.9067864 31.9521549,25.328435 32.2738538,25.0114492 L33.2368755,24.0625996 C33.5585743,23.745635 34.1455641,23.745635 34.4672844,24.0625996 L35.430306,25.0114492 C36.3933277,24.3795854 37.4628765,23.9576403 38.5846192,23.7477215 L38.5846192,22.4304603 C38.5846192,21.9570682 38.9585441,21.5351442 39.4933078,21.5351442 L40.8845768,21.5351442 C41.3650395,21.5351442 41.7932654,21.9035663 41.7932654,22.4304603 L41.7932654,23.7477215 C42.9171473,23.9576613 43.986696,24.3795854 44.9475786,25.0114492 L45.9106003,24.0625996 C46.2322992,23.745635 46.8192889,23.745635 47.1410092,24.0625996 L48.1040309,25.0114492 C48.4257297,25.3284139 48.4257297,25.9067654 48.1040309,26.2237511 L47.1410092,27.1726007 C47.7823106,28.1214503 48.264891,29.1752593 48.4779451,30.2804941 L49.814881,30.2804941 C50.2953437,30.2804941 50.7235697,30.6489163 50.7235697,31.1758103 L50.7235697,32.546605 C50.5084085,32.9664846 50.0801826,33.3349068 49.6540209,33.3349068 L49.6539674,33.3348541 Z"></path>
                </g>
            </g>
        </g>
    </g>
</svg>