<?xml version="1.0" encoding="UTF-8"?>
<svg width="40px" height="40px" viewBox="0 0 40 40" version="1.1" xmlns="http://www.w3.org/2000/svg" xmlns:xlink="http://www.w3.org/1999/xlink">
    <!-- Generator: Sketch 57.1 (83088) - https://sketch.com -->
    <title>demo_launch</title>
    <desc>Created with Sketch.</desc>
    <g id="Website" stroke="none" stroke-width="1" fill="none" fill-rule="evenodd">
        <g id="ICO" transform="translate(-700.000000, -3860.000000)" fill="#FFFFFF">
            <g id="Journey" transform="translate(209.000000, 2952.000000)">
                <g id="demo_launch" transform="translate(471.000000, 888.000000)">
                    <path d="M31.4114737,52.2495364 L31.4114737,56.1877174 L32.2889963,58.1243633 C32.7079884,58.9612937 32.0961943,59.9132233 31.2189381,59.9944177 L31.0977387,60 L27.2734167,60 C26.9883574,60 26.7032912,59.7935956 26.6538168,59.473987 L26.6462779,59.3748015 L26.6462779,52.2495364 L31.4114737,52.2495364 Z M48.7791557,32.3749407 C49.8561096,32.3749407 50.7047738,33.1721781 50.7797,34.2228924 L50.7850813,34.37466 L50.7850813,41.2507707 C52.9784948,41.5003385 54.6094033,43.3761402 54.6094033,45.6254274 C54.6094033,47.802157 53.0244703,49.5700739 50.9899862,49.9651848 L50.7850813,50.0000842 L50.7834675,56.8130805 C50.7834675,57.826733 49.9837558,58.7272894 48.9297806,58.8070639 L48.7775419,58.8128002 L48.0889554,58.8128002 C47.072157,58.8128002 46.168806,58.0155624 46.088784,56.9648482 L46.0830298,56.8130805 L46.0830298,34.37466 C46.0830298,33.3010382 46.8827415,32.4549997 47.9367167,32.3803054 L48.0889554,32.3749407 L48.7791557,32.3749407 Z M44.8290004,35.3122927 L44.8290004,55.9377371 C41.4874462,53.5167314 36.6167594,51.9152411 34.5492513,51.306231 L34.3580661,51.2503986 L34.3580661,39.9996312 C36.3028751,39.4373816 41.3813093,37.8131279 44.8290004,35.3122927 Z M56.6782504,48.0381196 L56.7399209,48.1244062 L58.1186663,50.1241256 C58.3077845,50.4367248 58.2447437,50.8121821 57.9311701,50.9990982 C57.6489577,51.1687779 57.3156721,51.1348409 57.1151525,50.8984688 L57.053482,50.8121821 L55.6747366,48.8124628 C55.4856184,48.4998636 55.5486592,48.1244062 55.8622327,47.9374902 C56.1444452,47.7678105 56.4777307,47.8017475 56.6782504,48.0381196 Z M33.1038299,40.1259414 L33.1038299,51.0009132 L25.8947954,51.0009132 C25.0785136,51.0009132 24.3269111,50.4997974 24.0133376,49.7505163 C23.1986695,47.624858 23.1986695,43.4998929 24.0133376,41.3745233 C24.3060024,40.734062 24.9802462,40.2014749 25.732512,40.1333098 L25.8947954,40.1259414 L33.1038299,40.1259414 Z M59.3728612,45.0000639 C59.6864264,45.0000639 60,45.2498133 60,45.6252624 C60,45.9665685 59.792955,46.204011 59.4723545,46.2443617 L59.3728612,46.2504609 L57.1778339,46.2504609 C56.801232,46.2504609 56.5506951,46.0007115 56.5506951,45.6252624 C56.5506951,45.2839563 56.7577401,45.0465138 57.0783406,45.0061632 L57.1778339,45.0000639 L59.3728612,45.0000639 Z M57.9311701,40.2496941 C58.2133863,40.4179111 58.2913571,40.7388566 58.1674444,41.0292514 L58.1186663,41.1246667 L56.7399209,43.124386 C56.552433,43.3757566 56.1758063,43.4369894 55.8622327,43.3113021 C55.5800165,43.1430851 55.5020457,42.8221396 55.6259584,42.5317448 L55.6747366,42.4363295 L57.053482,40.4366101 C57.2409699,40.1240068 57.6175966,40.0627781 57.9311701,40.2496941 Z M39.3106712,20 C40.3774609,20 41.192129,20.8749726 41.192129,21.8756367 L41.192129,21.8756367 L41.1905111,32.2494101 C41.1905111,33.3128993 40.3128229,34.1250468 39.3090532,34.1250468 L39.3090532,34.1250468 L36.7390502,34.1250468 L36.237993,36.2504163 C36.1135252,36.7499357 35.4863905,36.875623 35.172817,36.5630197 L35.172817,36.5630197 L32.7272859,34.1898107 L21.8814579,34.1898107 C20.8146681,34.1898107 20,33.3148381 20,32.314174 L20,32.314174 L20,21.8756367 C20,20.8121475 20.8776882,20 21.8814579,20 L21.8814579,20 Z M36.4903216,28.8752566 L24.6406419,28.8752566 C24.26404,28.8752566 24.0135031,29.1878517 24.0135031,29.500455 C24.0135031,29.8742788 24.3270684,30.1256535 24.6406419,30.1256535 L24.6406419,30.1256535 L36.4903216,30.1256535 C36.8038869,30.1256535 37.1174604,29.8758918 37.1174604,29.500455 C37.1174604,29.1250183 36.8038951,28.8752566 36.4903216,28.8752566 L36.4903216,28.8752566 Z M36.4903216,23.9381811 L24.6406419,23.9381811 C24.3270766,23.9381811 24.0135031,24.1879346 24.0135031,24.5617708 C24.0135031,24.8743659 24.2640276,25.1869692 24.6406419,25.1869692 L24.6406419,25.1869692 L36.4903216,25.1885822 C36.8038869,25.1885822 37.1174604,24.8759788 37.1174604,24.5633837 C37.1174604,24.2507886 36.8038951,23.9381811 36.4903216,23.9381811 L36.4903216,23.9381811 Z"></path>
                </g>
            </g>
        </g>
    </g>
</svg>