<?xml version="1.0" encoding="UTF-8"?>
<svg width="80px" height="80px" viewBox="0 0 80 80" version="1.1" xmlns="http://www.w3.org/2000/svg" xmlns:xlink="http://www.w3.org/1999/xlink">
    <!-- Generator: Sketch 57.1 (83088) - https://sketch.com -->
    <title>Combined Shape</title>
    <desc>Created with Sketch.</desc>
    <g id="Website" stroke="none" stroke-width="1" fill="none" fill-rule="evenodd">
        <g id="Homepage_Prelaunch" transform="translate(-1052.000000, -1756.000000)" fill="#3B3D47" fill-rule="nonzero">
            <g id="Why?" transform="translate(146.000000, 1566.000000)">
                <path d="M927.707317,226.585366 C939.676639,226.585366 949.414634,236.323361 949.414634,248.292683 C949.414634,260.262005 939.676639,270 927.707317,270 C915.737995,270 906,260.262005 906,248.292683 C906,236.323361 915.737995,226.585366 927.707317,226.585366 Z M927.707317,228.536585 C916.813643,228.536585 907.95122,237.399009 907.95122,248.292683 C907.95122,259.186357 916.813643,268.04878 927.707317,268.04878 C938.600991,268.04878 947.463415,259.186357 947.463415,248.292683 C947.463415,237.399009 938.600991,228.536585 927.707317,228.536585 Z M968.805831,240.64596 L978.209889,240.64596 C978.710182,240.64596 979.122575,241.022617 979.178935,241.5078 L979.185499,241.62157 L979.185499,251.025629 C979.185499,251.420065 978.94779,251.775915 978.583365,251.926925 C978.258162,252.060309 977.891556,252.009637 977.618044,251.801006 L977.520103,251.715416 L975.831841,250.027153 C970.61271,257.209413 963.14939,262.580031 954.695217,265.209604 C954.59899,265.239615 954.501334,265.253906 954.405107,265.253906 C954.027041,265.253906 953.674171,265.032256 953.515429,264.677715 L953.4738,264.567454 L951.735042,258.977706 C951.658346,258.730945 951.682641,258.463224 951.803163,258.234089 C951.923685,258.004954 952.129954,257.83346 952.377191,257.756288 C959.488396,255.544948 965.677387,250.987355 969.935311,244.854932 L970.22923,244.424543 L968.116044,242.311357 C967.83689,242.032203 967.753525,241.612995 967.904535,241.248095 C968.038766,240.924162 968.334846,240.700349 968.676009,240.654612 L968.805831,240.64596 L978.209889,240.64596 Z M911.853659,247.317073 C912.392435,247.317073 912.829268,247.753906 912.829268,248.292683 C912.829268,256.496284 919.503716,263.170732 927.707317,263.170732 C928.246094,263.170732 928.682927,263.607565 928.682927,264.146341 C928.682927,264.685118 928.246094,265.121951 927.707317,265.121951 C918.427592,265.121951 910.878049,257.572409 910.878049,248.292683 C910.878049,247.753906 911.314882,247.317073 911.853659,247.317073 Z M929.717114,237 L929.717114,239.16018 C932.219264,239.544913 933.894288,240.755361 934.871112,242.003468 L935,242.173823 L932.032326,244.93633 C931.177404,243.731676 929.919574,243.078318 928.35906,243.078318 C925.591784,243.078318 923.67951,245.036383 923.628412,248.050026 C923.628412,251.012639 925.540716,253.072766 928.307942,253.072766 C929.828138,253.072766 931.034547,252.44626 931.842737,251.40312 L931.981208,251.214754 L935,254.028292 C934.084652,255.32754 932.474339,256.581758 930.039402,256.993124 L929.717114,257.041935 L929.717114,259 L925.792282,259 L925.792282,256.890851 C921.716108,255.986256 919,252.570492 919,248.101058 C919,243.728785 921.5993,240.411686 925.528387,239.376858 L925.792282,239.311264 L925.792282,237 L929.717114,237 Z M943.302782,251.318598 C943.824409,251.453411 944.137386,251.985995 944.002096,252.507622 C943.891578,252.934928 943.764863,253.355564 943.621951,253.769055 C943.482851,254.173495 943.104611,254.427401 942.699695,254.427401 C942.594417,254.427401 942.487233,254.409775 942.381955,254.373571 C941.872237,254.198266 941.601658,253.642816 941.777439,253.133575 C941.903201,252.767721 942.015625,252.395675 942.113758,252.017912 C942.249047,251.496761 942.780202,251.180926 943.302782,251.318598 Z M927.707317,231.463415 C936.987043,231.463415 944.536585,239.012957 944.536585,248.292683 C944.536585,248.83146 944.099752,249.268293 943.560976,249.268293 C943.022199,249.268293 942.585366,248.83146 942.585366,248.292683 C942.585366,240.089082 935.910918,233.414634 927.707317,233.414634 C927.16854,233.414634 926.731707,232.977801 926.731707,232.439024 C926.731707,231.900248 927.16854,231.463415 927.707317,231.463415 Z M964.292683,190 C976.262005,190 986,199.737995 986,211.707317 C986,223.676639 976.262005,233.414634 964.292683,233.414634 C952.323361,233.414634 942.585366,223.676639 942.585366,211.707317 C942.585366,199.737995 952.323361,190 964.292683,190 Z M948.439024,210.731707 C947.900248,210.731707 947.463415,211.16854 947.463415,211.707317 C947.463415,220.987043 955.012957,228.536585 964.292683,228.536585 C964.83146,228.536585 965.268293,228.099752 965.268293,227.560976 C965.268293,227.022199 964.83146,226.585366 964.292683,226.585366 C956.089082,226.585366 949.414634,219.910918 949.414634,211.707317 C949.414634,211.16854 948.977801,210.731707 948.439024,210.731707 Z M967.496344,201.389756 L965.753835,201.389756 C965.099597,201.522366 964.427496,201.598049 963.79416,201.797054 C960.556378,202.814287 958.51447,205.01834 957.516411,208.230814 C957.467523,208.388136 957.426019,208.54778 957.373916,208.73166 L955.360232,208.73166 L955.360232,210.899867 L957.008836,210.899867 L957.008836,212.353754 L955.360887,212.353754 L955.360887,214.518984 C955.897997,214.518984 956.440227,214.527856 956.981981,214.514815 C957.212605,214.509218 957.348252,214.556736 957.392673,214.815049 C958.014934,218.436071 961.086819,221.570063 965.452768,221.95509 C965.524045,221.961402 965.592404,222.000822 965.662074,222.024819 L967.312881,222.024819 C968.14421,221.846716 968.980957,221.690287 969.804425,221.481398 C970.214284,221.377489 970.596989,221.16991 970.99732,221.023783 C971.243485,220.933927 971.312976,220.789706 971.254442,220.533954 C971.026796,219.538812 970.813679,218.540337 970.595382,217.543767 C969.871356,217.740449 969.167516,217.978396 968.444681,218.118212 C966.950243,218.407191 965.49183,218.29697 964.142864,217.514887 C963.015411,216.861185 962.401665,215.847644 962.12531,214.540956 L969.768817,214.540956 L969.768817,212.378466 L961.716225,212.378466 L961.716225,210.910287 L969.779356,210.910287 L969.779356,208.737793 L962.211712,208.737793 C962.512302,206.94729 964.105766,205.441597 965.909966,205.152201 C967.442871,204.906333 968.87818,205.255574 970.334866,205.79179 C970.61795,204.646592 970.898652,203.510802 971.188881,202.336843 C970.349574,201.925257 969.466797,201.718333 968.567585,201.565239 C968.210842,201.504502 967.853444,201.448111 967.496344,201.389756 Z M938.486093,195.325783 L938.5262,195.432546 L940.264958,201.022294 C940.341654,201.269055 940.317359,201.536776 940.196837,201.765911 C940.076315,201.995046 939.870046,202.16654 939.622809,202.243712 C932.511604,204.455052 926.322613,209.012645 922.064689,215.145068 L921.77077,215.575457 L923.883956,217.688643 C924.16311,217.967797 924.246475,218.387005 924.095465,218.751905 C923.961234,219.075838 923.665154,219.299651 923.323991,219.345388 L923.194169,219.35404 L913.790111,219.35404 C913.289818,219.35404 912.877425,218.977383 912.821065,218.4922 L912.814501,218.37843 L912.814501,208.974371 C912.814501,208.579935 913.05221,208.224085 913.416635,208.073075 C913.740991,207.938421 914.107503,207.989704 914.381674,208.198822 L914.479897,208.284584 L916.168159,209.972847 C921.38729,202.790587 928.85061,197.419969 937.304783,194.790396 C937.779862,194.643095 938.287801,194.879023 938.486093,195.325783 Z M978.699124,215.432546 C978.600991,215.810309 978.488567,216.182355 978.362805,216.548209 C978.187024,217.057451 978.457603,217.6129 978.967321,217.788205 C979.072599,217.824409 979.179783,217.842035 979.285061,217.842035 C979.689977,217.842035 980.068216,217.588129 980.207317,217.183689 C980.350229,216.770198 980.476944,216.349562 980.587462,215.922256 C980.722752,215.400629 980.409775,214.868045 979.888148,214.733232 C979.363186,214.597942 978.833937,214.911871 978.699124,215.432546 Z M964.292683,194.878049 C963.753906,194.878049 963.317073,195.314882 963.317073,195.853659 C963.317073,196.392435 963.753906,196.829268 964.292683,196.829268 C972.496284,196.829268 979.170732,203.503716 979.170732,211.707317 C979.170732,212.246094 979.607565,212.682927 980.146341,212.682927 C980.685118,212.682927 981.121951,212.246094 981.121951,211.707317 C981.121951,202.427592 973.572409,194.878049 964.292683,194.878049 Z" id="Combined-Shape"></path>
            </g>
        </g>
    </g>
</svg>