<?xml version="1.0" encoding="UTF-8"?>
<svg width="600px" height="640px" viewBox="0 0 600 640" version="1.1" xmlns="http://www.w3.org/2000/svg" xmlns:xlink="http://www.w3.org/1999/xlink">
    <!-- Generator: Sketch 57.1 (83088) - https://sketch.com -->
    <title>for_freelancers_illustration</title>
    <desc>Created with Sketch.</desc>
    <g id="Website" stroke="none" stroke-width="1" fill="none" fill-rule="evenodd">
        <g id="Homepage_Prelaunch" transform="translate(-690.000000, -3108.000000)">
            <g id="For-Freelancers" transform="translate(150.000000, 3108.000000)">
                <g id="for_freelancers_imagery" transform="translate(540.000000, 0.000000)">
                    <g id="for_freelancers_illustration">
                        <rect id="Rectangle-3" fill="#008D7F" opacity="0.100000001" x="540" y="196" width="60" height="80"></rect>
                        <rect id="Rectangle-3" fill="#FFA17A" opacity="0.100000001" x="0" y="375" width="120" height="120"></rect>
                        <path d="M469.5,0 C471.985281,0 474,2.01471863 474,4.5 C474,6.98528137 471.985281,9 469.5,9 C469.143878,9 468.797419,8.95863245 468.465164,8.88044054 L361.738116,259.59517 C363.08972,260.371535 364,261.829464 364,263.5 C364,264.232546 363.824962,264.92421 363.514428,265.535448 L465.730518,312.041206 C466.533866,310.812133 467.922091,310 469.5,310 C471.985281,310 474,312.014719 474,314.5 C474,315.883481 473.375676,317.121144 472.393398,317.946618 L571.202886,486.18976 C571.613616,486.066328 572.049062,486 572.5,486 C574.985281,486 577,488.014719 577,490.5 C577,492.985281 574.985281,495 572.5,495 C570.248279,495 568.382833,493.346165 568.052099,491.186933 L347.966132,511.05485 C347.692728,513.278353 345.79742,515 343.5,515 C343.150285,515 342.809888,514.960108 342.483111,514.884625 L319.419,631.002 L319.5,631 C321.914273,631 323.884489,632.901237 323.995102,635.288164 L324,635.5 C324,637.985281 321.985281,640 319.5,640 C317.014719,640 315,637.985281 315,635.5 C315,634.416069 315.383236,633.421648 316.021602,632.644843 L133.762973,514.390447 C133.09816,514.777987 132.325007,515 131.5,515 C129.826591,515 128.366521,514.086586 127.59117,512.731138 L51.9891583,549.185172 C51.9963463,549.289182 52,549.394164 52,549.5 C52,551.985281 49.9852814,554 47.5,554 C45.0147186,554 43,551.985281 43,549.5 C43,547.221538 44.6933502,545.338579 46.8902075,545.040967 L91.2768457,417.413386 C89.9170019,416.639208 89,415.176693 89,413.5 C89,411.428872 90.3991913,409.684543 92.3038875,409.160699 L62.3259557,149.996696 C59.9213357,149.90525 58,147.927001 58,145.5 C58,143.014719 60.0147186,141 62.5,141 C64.9852814,141 67,143.014719 67,145.5 C67,147.874712 65.1605624,149.8198 62.8287788,149.988173 L92.7950547,409.054895 C93.0247295,409.018761 93.2601738,409 93.5,409 C95.9852814,409 98,411.014719 98,413.5 C98,413.753401 97.979055,414.001911 97.9388017,414.243891 L339.283392,508.924817 C339.921872,507.216413 341.568882,506 343.5,506 C343.689929,506 343.87711,506.011766 344.060854,506.03461 L359.036503,267.976421 C356.768981,267.744408 355,265.828788 355,263.5 C355,262.384092 355.406181,261.363053 356.078762,260.576664 L223.520377,86.8358101 C222.721847,87.5592743 221.662392,88 220.5,88 C218.014719,88 216,85.9852814 216,83.5 C216,81.0147186 218.014719,79 220.5,79 C222.662195,79 224.468221,80.5249405 224.901246,82.5579903 L465.036628,5.07685198 C465.01246,4.88797878 465,4.69544446 465,4.5 C465,2.01471863 467.014719,0 469.5,0 Z M339.151528,511.662248 L135.848472,511.662248 C135.587142,512.6425 135.003167,513.491086 134.217233,514.087321 L316.365227,632.271498 C317.040809,631.615409 317.921637,631.169518 318.902177,631.039362 L342.000919,514.744266 C340.611193,514.25341 339.534644,513.099318 339.151528,511.662248 Z M92.199886,417.809337 L47.9554403,545.022762 C49.7743313,545.205576 51.2737398,546.471538 51.798965,548.165947 L127.19399,511.811107 C127.067844,511.396278 127,510.956062 127,510.5 C127,509.346849 127.433746,508.295005 128.146989,507.498717 L126.892,504.134 L94.6262778,417.857901 C94.2663207,417.950661 93.8889222,418 93.5,418 C93.0479643,418 92.6114958,417.933349 92.199886,417.809337 Z M97.6635882,415.210315 C97.2679643,416.17239 96.5485853,416.967155 95.6410755,417.458986 L127.486,502.864 L128.953947,506.789014 C129.677996,506.291304 130.554979,506 131.5,506 C133.985281,506 136,508.014719 136,510.5 C136,510.554181 135.999042,510.608139 135.997143,510.661858 L339.003,510.661 L339,510.5 C339,510.298006 339.013309,510.099121 339.039097,509.904173 L97.6635882,415.210315 Z M471.559508,318.502113 C470.942385,318.82033 470.242174,319 469.5,319 C468.799727,319 468.136814,318.840045 467.545804,318.554679 L346.665986,507.302105 C347.389607,508.01855 347.871335,508.978857 347.977741,510.049598 L568.010842,490.185172 C568.117502,488.64182 569.002375,487.312619 570.275847,486.587182 L471.559508,318.502113 Z M385.744,445.354 L346.218236,506.913441 C346.241314,506.930958 346.264217,506.948693 346.286942,506.966642 L385.744,445.354 Z M363.262323,265.969713 C362.500241,267.128308 361.21738,267.913867 359.746781,267.993348 L359.535,267.999 L344.558017,506.12508 C344.83604,506.192076 345.104003,506.284885 345.359227,506.400829 L466.45266,317.811183 C465.559558,316.988824 465,315.809758 465,314.5 C465,313.772268 465.172745,313.084883 465.479468,312.476613 L363.262323,265.969713 Z M465.274147,6.05021988 L224.999362,83.5765779 C224.983906,84.5028565 224.688581,85.3610233 224.194288,86.0701755 L356.812973,259.889962 C357.562833,259.330917 358.492771,259 359.5,259 C359.959722,259 360.403343,259.068937 360.821089,259.197038 L467.522004,8.5431002 C466.486634,8.03561424 465.674827,7.14213261 465.274147,6.05021988 Z" id="Combined-Shape" fill="#FFA17A" fill-rule="nonzero" transform="translate(310.000000, 320.000000) scale(-1, 1) translate(-310.000000, -320.000000) "></path>
                    </g>
                </g>
            </g>
        </g>
    </g>
</svg>