<?xml version="1.0" encoding="UTF-8"?>
<svg width="420px" height="500px" viewBox="0 0 420 500" version="1.1" xmlns="http://www.w3.org/2000/svg" xmlns:xlink="http://www.w3.org/1999/xlink">
    <!-- Generator: Sketch 57.1 (83088) - https://sketch.com -->
    <title>geometric_particles</title>
    <desc>Created with Sketch.</desc>
    <g id="Website" stroke="none" stroke-width="1" fill="none" fill-rule="evenodd">
        <g id="ICO" transform="translate(-870.000000, -870.000000)" fill="#FFA17A" fill-rule="nonzero">
            <path d="M1205.45134,870 C1207.40606,870 1208.99068,871.573999 1208.99068,873.515625 C1208.99068,875.457251 1207.40606,877.03125 1205.45134,877.03125 C1205.20937,877.03125 1204.97308,877.007133 1204.74476,876.961186 L1120.78888,1072.86464 C1121.79962,1073.48363 1122.47334,1074.59335 1122.47334,1075.85938 C1122.47334,1076.41226 1122.34485,1076.93535 1122.11591,1077.40076 L1202.51697,1113.73675 C1203.15308,1112.80201 1204.22996,1112.1875 1205.45134,1112.1875 C1207.40606,1112.1875 1208.99068,1113.7615 1208.99068,1115.70312 C1208.99068,1116.7448 1208.53458,1117.68066 1207.80993,1118.32442 L1285.54998,1249.80559 C1285.84127,1249.72856 1286.14732,1249.6875 1286.46303,1249.6875 C1288.41776,1249.6875 1290.00237,1251.2615 1290.00237,1253.20312 C1290.00237,1255.14475 1288.41776,1256.71875 1286.46303,1256.71875 C1284.72998,1256.71875 1283.28785,1255.48151 1282.98305,1253.84776 L1109.84682,1269.37254 C1109.5834,1271.05565 1108.11796,1272.34375 1106.34965,1272.34375 C1106.0936,1272.34375 1105.8439,1272.31674 1105.60328,1272.26544 L1087.465,1362.968 C1089.36271,1362.96875 1090.90643,1364.43956 1091.00725,1366.29148 L1091.01249,1366.48438 C1091.01249,1368.426 1089.42787,1370 1087.47314,1370 C1085.51841,1370 1083.93379,1368.426 1083.93379,1366.48438 C1083.93379,1365.65703 1084.22151,1364.89644 1084.70298,1364.29593 L941.334161,1271.89754 C940.823322,1272.18173 940.234277,1272.34375 939.607135,1272.34375 C938.330216,1272.34375 937.211234,1271.67208 936.588746,1270.66502 L877.075,1299.168 L877.078692,1299.29688 C877.078692,1301.17378 875.597953,1302.70716 873.73354,1302.8073 L873.539346,1302.8125 C871.584619,1302.8125 870,1301.2385 870,1299.29688 C870,1297.55886 871.269703,1296.11541 872.93801,1295.83178 L907.876092,1196.04872 C906.858878,1195.43114 906.17998,1194.31776 906.17998,1193.04688 C906.17998,1191.44776 907.254842,1190.09801 908.726077,1189.67157 L885.145939,987.182456 C883.28013,987.083785 881.79782,985.549776 881.79782,983.671875 C881.79782,981.730249 883.382439,980.15625 885.337165,980.15625 C887.291892,980.15625 888.876511,981.730249 888.876511,983.671875 C888.876511,985.509134 887.457667,987.017226 885.648981,987.174044 L909.217025,1189.56638 C909.381105,1189.54323 909.548807,1189.53125 909.719326,1189.53125 C911.674052,1189.53125 913.258672,1191.10525 913.258672,1193.04688 C913.258672,1193.14123 913.254929,1193.23472 913.247584,1193.3272 L1103.00144,1267.68551 C1103.4789,1266.30479 1104.79761,1265.3125 1106.34965,1265.3125 C1106.48066,1265.3125 1106.61001,1265.31957 1106.73732,1265.33335 L1118.51521,1079.35065 C1116.75786,1079.14488 1115.39465,1077.66026 1115.39465,1075.85938 C1115.39465,1075.02751 1115.68552,1074.26312 1116.17175,1073.66109 L1011.90135,937.911839 C1011.28357,938.434531 1010.48264,938.75 1009.60753,938.75 C1007.6528,938.75 1006.06819,937.176001 1006.06819,935.234375 C1006.06819,933.292749 1007.6528,931.71875 1009.60753,931.71875 C1011.26959,931.71875 1012.66407,932.856704 1013.04439,934.391025 L1201.92826,873.854907 C1201.9175,873.743255 1201.91199,873.630079 1201.91199,873.515625 C1201.91199,871.573999 1203.49661,870 1205.45134,870 Z M942.999779,1269.83303 C942.788186,1270.53889 942.359414,1271.15182 941.790442,1271.59535 L1085.04887,1363.92291 C1085.56126,1363.44426 1086.21727,1363.11559 1086.94586,1363.0075 L1105.11899,1272.1254 C1104.14206,1271.76551 1103.36857,1270.98949 1103.01675,1270.01409 L942.999779,1269.83303 Z M908.800185,1196.44279 L874.009139,1295.81195 C875.352087,1295.98886 876.45729,1296.91372 876.88651,1298.15122 L936.189589,1269.74584 C936.110159,1269.45328 936.067789,1269.14562 936.067789,1268.82812 C936.067789,1267.97022 936.377156,1267.18409 936.891121,1266.57379 L910.498736,1196.47698 C910.24796,1196.53296 909.987116,1196.5625 909.719326,1196.5625 C909.401414,1196.5625 909.093292,1196.52087 908.800185,1196.44279 Z M913.021892,1194.31378 C912.748072,1195.01756 912.252808,1195.6119 911.620971,1196.01247 L937.805462,1265.80144 C938.333219,1265.49081 938.949213,1265.3125 939.607135,1265.3125 C941.561862,1265.3125 943.146481,1266.8865 943.146481,1268.82812 L943.14648,1268.83014 L1064.894,1268.968 L1102.814,1268.968 L1102.81031,1268.82812 C1102.81031,1268.78017 1102.81127,1268.73244 1102.81319,1268.68495 L913.021892,1194.31378 Z M1206.97395,1118.87771 C1206.51275,1119.09635 1205.99643,1119.21875 1205.45134,1119.21875 C1204.9202,1119.21875 1204.41639,1119.10254 1203.96428,1118.89432 L1108.87881,1266.36877 C1109.40172,1266.89926 1109.75682,1267.59359 1109.85883,1268.36702 L1282.94163,1252.84691 C1283.05519,1251.72585 1283.69899,1250.76018 1284.62016,1250.20106 L1206.97395,1118.87771 Z M1121.86198,1077.83509 C1121.26487,1078.70649 1120.28381,1079.29745 1119.16048,1079.36792 L1119.016,1079.372 L1107.23506,1265.4234 C1107.3985,1265.46522 1107.55736,1265.51833 1107.71077,1265.58187 L1202.97419,1118.21417 C1202.3187,1117.57609 1201.91199,1116.68678 1201.91199,1115.70312 C1201.91199,1115.15418 1202.03865,1114.63462 1202.26453,1114.17171 L1121.86198,1077.83509 Z M1202.16713,874.828748 L1013.14252,935.410382 C1013.11079,936.049589 1012.90719,936.643899 1012.57667,937.14867 L1116.90912,1072.97555 C1117.48286,1072.57734 1118.18096,1072.34375 1118.93399,1072.34375 C1119.25726,1072.34375 1119.57041,1072.3868 1119.86794,1072.46744 L1203.7995,876.625684 C1203.06323,876.239056 1202.4808,875.602022 1202.16713,874.828748 Z" id="geometric_particles" transform="translate(1080.001188, 1120.000000) scale(-1, 1) translate(-1080.001188, -1120.000000) "></path>
        </g>
    </g>
</svg>