<?xml version="1.0" encoding="UTF-8"?>
<svg width="420px" height="500px" viewBox="0 0 420 500" version="1.1" xmlns="http://www.w3.org/2000/svg" xmlns:xlink="http://www.w3.org/1999/xlink">
    <!-- Generator: sketchtool 57.1 (101010) - https://sketch.com -->
    <title>5E1DD3ED-08BD-46AD-B7DE-461526D5B11B</title>
    <desc>Created with sketchtool.</desc>
    <g id="Website" stroke="none" stroke-width="1" fill="none" fill-rule="evenodd">
        <g id="ICO" transform="translate(-870.000000, -2291.000000)" fill="#87C6C1" fill-rule="nonzero">
            <path d="M1205.45134,2291 C1207.40606,2291 1208.99068,2292.574 1208.99068,2294.51562 C1208.99068,2296.45725 1207.40606,2298.03125 1205.45134,2298.03125 C1205.20937,2298.03125 1204.97308,2298.00713 1204.74476,2297.96119 L1120.78888,2493.86464 C1121.79962,2494.48363 1122.47334,2495.59335 1122.47334,2496.85938 C1122.47334,2497.41226 1122.34485,2497.93535 1122.11591,2498.40076 L1202.51697,2534.73675 C1203.15308,2533.80201 1204.22996,2533.1875 1205.45134,2533.1875 C1207.40606,2533.1875 1208.99068,2534.7615 1208.99068,2536.70312 C1208.99068,2537.7448 1208.53458,2538.68066 1207.80993,2539.32442 L1285.54998,2670.80559 C1285.84127,2670.72856 1286.14732,2670.6875 1286.46303,2670.6875 C1288.41776,2670.6875 1290.00237,2672.2615 1290.00237,2674.20312 C1290.00237,2676.14475 1288.41776,2677.71875 1286.46303,2677.71875 C1284.72998,2677.71875 1283.28785,2676.48151 1282.98305,2674.84776 L1109.84682,2690.37254 C1109.5834,2692.05565 1108.11796,2693.34375 1106.34965,2693.34375 C1106.0936,2693.34375 1105.8439,2693.31674 1105.60328,2693.26544 L1087.465,2783.968 C1089.36271,2783.96875 1090.90643,2785.43956 1091.00725,2787.29148 L1091.01249,2787.48438 C1091.01249,2789.426 1089.42787,2791 1087.47314,2791 C1085.51841,2791 1083.93379,2789.426 1083.93379,2787.48438 C1083.93379,2786.65703 1084.22151,2785.89644 1084.70298,2785.29593 L941.334161,2692.89754 C940.823322,2693.18173 940.234277,2693.34375 939.607135,2693.34375 C938.330216,2693.34375 937.211234,2692.67208 936.588746,2691.66502 L877.075,2720.168 L877.078692,2720.29688 C877.078692,2722.17378 875.597953,2723.70716 873.73354,2723.8073 L873.539346,2723.8125 C871.584619,2723.8125 870,2722.2385 870,2720.29688 C870,2718.55886 871.269703,2717.11541 872.93801,2716.83178 L907.876092,2617.04872 C906.858878,2616.43114 906.17998,2615.31776 906.17998,2614.04688 C906.17998,2612.44776 907.254842,2611.09801 908.726077,2610.67157 L885.145939,2408.18246 C883.28013,2408.08379 881.79782,2406.54978 881.79782,2404.67188 C881.79782,2402.73025 883.382439,2401.15625 885.337165,2401.15625 C887.291892,2401.15625 888.876511,2402.73025 888.876511,2404.67188 C888.876511,2406.50913 887.457667,2408.01723 885.648981,2408.17404 L909.217025,2610.56638 C909.381105,2610.54323 909.548807,2610.53125 909.719326,2610.53125 C911.674052,2610.53125 913.258672,2612.10525 913.258672,2614.04688 C913.258672,2614.14123 913.254929,2614.23472 913.247584,2614.3272 L1103.00144,2688.68551 C1103.4789,2687.30479 1104.79761,2686.3125 1106.34965,2686.3125 C1106.48066,2686.3125 1106.61001,2686.31957 1106.73732,2686.33335 L1118.51521,2500.35065 C1116.75786,2500.14488 1115.39465,2498.66026 1115.39465,2496.85938 C1115.39465,2496.02751 1115.68552,2495.26312 1116.17175,2494.66109 L1011.90135,2358.91184 C1011.28357,2359.43453 1010.48264,2359.75 1009.60753,2359.75 C1007.6528,2359.75 1006.06819,2358.176 1006.06819,2356.23438 C1006.06819,2354.29275 1007.6528,2352.71875 1009.60753,2352.71875 C1011.26959,2352.71875 1012.66407,2353.8567 1013.04439,2355.39102 L1201.92826,2294.85491 C1201.9175,2294.74326 1201.91199,2294.63008 1201.91199,2294.51562 C1201.91199,2292.574 1203.49661,2291 1205.45134,2291 Z M942.999779,2690.83303 C942.788186,2691.53889 942.359414,2692.15182 941.790442,2692.59535 L1085.04887,2784.92291 C1085.56126,2784.44426 1086.21727,2784.11559 1086.94586,2784.0075 L1105.11899,2693.1254 C1104.14206,2692.76551 1103.36857,2691.98949 1103.01675,2691.01409 L942.999779,2690.83303 Z M908.800185,2617.44279 L874.009139,2716.81195 C875.352087,2716.98886 876.45729,2717.91372 876.88651,2719.15122 L936.189589,2690.74584 C936.110159,2690.45328 936.067789,2690.14562 936.067789,2689.82812 C936.067789,2688.97022 936.377156,2688.18409 936.891121,2687.57379 L910.498736,2617.47698 C910.24796,2617.53296 909.987116,2617.5625 909.719326,2617.5625 C909.401414,2617.5625 909.093292,2617.52087 908.800185,2617.44279 Z M913.021892,2615.31378 C912.748072,2616.01756 912.252808,2616.6119 911.620971,2617.01247 L937.805462,2686.80144 C938.333219,2686.49081 938.949213,2686.3125 939.607135,2686.3125 C941.561862,2686.3125 943.146481,2687.8865 943.146481,2689.82812 L943.14648,2689.83014 L1064.894,2689.968 L1102.814,2689.968 L1102.81031,2689.82812 C1102.81031,2689.78017 1102.81127,2689.73244 1102.81319,2689.68495 L913.021892,2615.31378 Z M1206.97395,2539.87771 C1206.51275,2540.09635 1205.99643,2540.21875 1205.45134,2540.21875 C1204.9202,2540.21875 1204.41639,2540.10254 1203.96428,2539.89432 L1108.87881,2687.36877 C1109.40172,2687.89926 1109.75682,2688.59359 1109.85883,2689.36702 L1282.94163,2673.84691 C1283.05519,2672.72585 1283.69899,2671.76018 1284.62016,2671.20106 L1206.97395,2539.87771 Z M1121.86198,2498.83509 C1121.26487,2499.70649 1120.28381,2500.29745 1119.16048,2500.36792 L1119.016,2500.372 L1107.23506,2686.4234 C1107.3985,2686.46522 1107.55736,2686.51833 1107.71077,2686.58187 L1202.97419,2539.21417 C1202.3187,2538.57609 1201.91199,2537.68678 1201.91199,2536.70312 C1201.91199,2536.15418 1202.03865,2535.63462 1202.26453,2535.17171 L1121.86198,2498.83509 Z M1202.16713,2295.82875 L1013.14252,2356.41038 C1013.11079,2357.04959 1012.90719,2357.6439 1012.57667,2358.14867 L1116.90912,2493.97555 C1117.48286,2493.57734 1118.18096,2493.34375 1118.93399,2493.34375 C1119.25726,2493.34375 1119.57041,2493.3868 1119.86794,2493.46744 L1203.7995,2297.62568 C1203.06323,2297.23906 1202.4808,2296.60202 1202.16713,2295.82875 Z" id="geometric_particles" transform="translate(1080.001188, 2541.000000) scale(-1, 1) translate(-1080.001188, -2541.000000) "></path>
        </g>
    </g>
</svg>