<?xml version="1.0" encoding="UTF-8"?>
<svg width="80px" height="80px" viewBox="0 0 80 80" version="1.1" xmlns="http://www.w3.org/2000/svg" xmlns:xlink="http://www.w3.org/1999/xlink">
    <!-- Generator: Sketch 57.1 (83088) - https://sketch.com -->
    <title>get_paid_instantly</title>
    <desc>Created with Sketch.</desc>
    <g id="Website" stroke="none" stroke-width="1" fill="none" fill-rule="evenodd">
        <g id="Homepage_Prelaunch" transform="translate(-748.000000, -1756.000000)" fill="#3B3D47" fill-rule="nonzero">
            <g id="Why?" transform="translate(146.000000, 1566.000000)">
                <path d="M657.045113,190 C658.648773,190 660.20275,190.281059 661.663098,190.836509 C666.735858,192.741997 670.14668,197.657203 670.14668,203.064977 C670.14668,205.149819 669.635534,207.158858 668.721921,208.952934 L668.721921,208.952934 L678.259084,208.952934 C680.321819,208.952934 682,210.625953 682,212.682927 L682,212.682927 L682,266.269055 C682,268.326029 680.321819,270 678.259084,270 L678.259084,270 L620.428466,270 C614.421313,270 609.53438,265.126715 609.53438,259.136814 L609.53438,259.136814 L609.53438,254.171113 L607.850466,254.171113 C604.624517,254.171113 602,251.553926 602,248.336509 L602,248.336509 L602,239.400724 C602,236.183308 604.624517,233.566121 607.850466,233.566121 L607.850466,233.566121 L609.53438,233.566121 L609.53438,228.6109 C609.53438,227.843107 609.616963,227.094548 609.769471,226.371356 C609.629264,226.202542 609.53438,225.99395 609.53438,225.757432 L609.53438,225.757432 L609.53438,219.826601 C609.53438,213.830983 614.421313,208.952935 620.428466,208.952935 L620.428466,208.952935 L621.669368,208.952935 C622.616301,207.766888 623.764885,206.723752 625.116674,205.902249 C627.163166,204.657012 629.518735,203.999619 631.92924,203.999619 C636.079908,203.999619 639.778607,205.940239 642.180752,208.952935 L642.180752,208.952935 L645.364723,208.952935 C644.462814,207.181069 643.943069,205.184356 643.943069,203.064977 C643.943069,195.86128 649.820765,190 657.045113,190 Z M678.259084,219.688453 L620.438498,219.688453 C620.322475,219.688453 620.209677,219.701434 620.094729,219.70584 L620.094729,219.70584 L619.975601,219.713224 C619.960733,219.714058 619.946282,219.714058 619.931831,219.714058 C615.234309,219.978325 611.491064,223.861471 611.491064,228.610899 L611.491064,228.610899 L611.491064,233.56612 L634.789744,233.56612 C636.345632,233.56612 637.611553,234.828506 637.611553,236.379573 L637.611553,236.379573 L637.611553,251.35766 C637.611553,252.908727 636.345632,254.171113 634.789744,254.171113 L634.789744,254.171113 L611.491064,254.171113 L611.491064,259.136814 C611.491064,264.051067 615.500451,268.04878 620.428466,268.04878 L620.428466,268.04878 L678.259084,268.04878 C679.242681,268.04878 680.043316,267.250381 680.043316,266.269055 L680.043316,266.269055 L680.043316,221.468178 C680.043316,220.486852 679.242681,219.688453 678.259084,219.688453 L678.259084,219.688453 Z M675.292696,242.892531 C675.79439,242.892531 676.207937,243.268777 676.264456,243.754283 L676.271038,243.86814 L676.271038,261.511052 C676.271038,263.429878 674.705596,264.990473 672.781396,264.990473 C672.24111,264.990473 671.803054,264.554116 671.803054,264.014863 C671.803054,263.47561 672.24111,263.039253 672.781396,263.039253 C673.57951,263.039253 674.237436,262.42738 674.308076,261.649885 L674.314354,261.511052 L674.314354,243.86814 C674.314354,243.328887 674.752411,242.892531 675.292696,242.892531 Z M663.290332,263.039253 L666.189052,263.039253 C666.729338,263.039253 667.167394,263.47561 667.167394,264.014863 C667.167394,264.515598 666.789682,264.927611 666.30314,264.983915 L666.189052,264.990473 L663.290332,264.990473 C662.750046,264.990473 662.31199,264.554116 662.31199,264.014863 C662.31199,263.514128 662.689702,263.102115 663.176243,263.04581 L663.290332,263.039253 L666.189052,263.039253 Z M610.512722,240.403011 C608.596643,240.403011 607.037888,241.957889 607.037888,243.86814 C607.037888,245.779344 608.596643,247.334223 610.512722,247.334223 C612.428801,247.334223 613.987556,245.779345 613.987556,243.86814 C613.987556,241.957889 612.428801,240.403011 610.512722,240.403011 Z M631.92924,205.950838 C629.878448,205.950838 627.874948,206.510099 626.135143,207.567645 C622.784513,209.604611 620.78388,213.154535 620.78388,217.065549 C620.78388,217.285633 620.791046,217.509527 620.805855,217.737233 L620.805855,217.737233 L626.308431,217.737233 L626.308431,217.737233 L626.308431,217.515661 L626.308431,217.515661 L627.473198,217.515661 L627.473198,217.515661 L627.473198,216.491044 L627.473198,216.491044 L626.308013,216.491044 L626.308013,216.491044 L626.308013,214.962962 L626.308013,214.962962 L627.731159,214.962962 C627.768002,214.833389 627.797322,214.720846 627.831896,214.60997 C628.537228,212.345953 629.980319,210.792564 632.26865,210.075624 C632.716261,209.935392 633.19122,209.882038 633.653639,209.78861 L633.653639,209.78861 L634.885106,209.78861 C635.137514,209.829697 635.390161,209.869414 635.64221,209.912228 C636.277738,210.020186 636.901623,210.166016 637.494814,210.456067 C637.289699,211.283465 637.091272,212.083949 636.891232,212.890982 C635.861716,212.5131 634.847367,212.266935 633.763989,212.440215 C632.488813,212.644222 631.36274,213.7054 631.150221,214.967309 L631.150221,214.967309 L636.498618,214.967309 L636.498618,214.967309 L636.498618,216.498368 L636.498618,216.498368 L630.800062,216.498368 L630.800062,216.498368 L630.800062,217.533108 L630.800062,217.533108 L636.491154,217.533108 L636.491154,217.533108 L636.491154,217.737233 L643.048326,217.737233 C643.066001,217.501905 643.074122,217.280869 643.074122,217.065549 C643.074122,210.936547 638.07445,205.950838 631.92924,205.950838 Z M657.045113,191.95122 C650.899425,191.95122 645.899753,196.936928 645.899753,203.064977 C645.899753,209.193979 650.899425,214.179688 657.045113,214.179688 C658.408009,214.179688 659.727433,213.940549 660.965647,213.469893 C665.288409,211.84737 668.189996,207.665777 668.189996,203.064977 C668.189996,198.464177 665.288409,194.283537 660.969469,192.661014 C659.728866,192.189405 658.409919,191.95122 657.045113,191.95122 Z M657.710797,194.985232 L657.710797,196.282096 C658.379944,196.282096 659.073274,196.368795 659.791625,196.54148 C660.420129,196.693204 660.982617,196.943677 661.478648,197.293856 L661.687162,197.45004 L659.903527,199.617771 C659.606334,199.358386 659.265372,199.169922 658.881236,199.052317 C658.59318,198.96465 658.301697,198.902874 658.006813,198.866965 L657.710797,198.839677 L657.710797,201.785502 L659.494432,202.304271 C660.312563,202.551567 660.965826,202.956483 661.455057,203.518185 C661.944228,204.080721 662.189231,204.793969 662.189231,205.658822 C662.189231,206.313298 662.071238,206.887802 661.836087,207.381681 C661.60022,207.876334 661.278843,208.296315 660.869807,208.641625 C660.460771,208.98771 659.983662,209.259897 659.43848,209.457472 C659.002382,209.615484 658.546412,209.73009 658.070997,209.801258 L657.710797,209.846489 L657.710797,211.143352 L656.484406,211.143352 L656.484406,209.846489 C655.667051,209.846489 654.851965,209.734899 654.040641,209.513267 C653.330732,209.318609 652.694384,208.99639 652.131516,208.546131 L651.894785,208.345322 L653.864487,206.140613 C654.18658,206.535704 654.576746,206.816942 655.034926,206.983553 C655.40147,207.11689 655.784027,207.208687 656.182535,207.259005 L656.484406,207.288967 L656.484406,204.157596 L655.1279,203.749702 C654.18658,203.453399 653.470558,203.036395 652.981328,202.499583 C652.492157,201.961938 652.24793,201.2238 652.24793,200.285049 C652.24793,199.704471 652.365087,199.179688 652.601014,198.709985 C652.836165,198.240222 653.149182,197.839117 653.539348,197.505061 C653.929515,197.171839 654.381663,196.900367 654.895794,196.690049 C655.306526,196.522318 655.727882,196.401462 656.159128,196.328153 L656.484406,196.282096 L656.484406,194.985232 L657.710797,194.985232 Z M657.710797,204.472775 L657.710797,207.251989 C657.896803,207.21507 658.085079,207.163026 658.277117,207.094429 C658.469155,207.02732 658.640054,206.936809 658.788263,206.825993 C658.937188,206.715177 659.058167,206.582448 659.1512,206.427865 C659.243397,206.273342 659.290272,206.090832 659.290272,205.881229 C659.290272,205.683713 659.256295,205.517042 659.188222,205.380562 C659.119432,205.244855 659.030221,205.130288 658.918318,205.037514 C658.807132,204.945515 658.677077,204.864829 658.528152,204.797006 L658.300831,204.697459 L658.063881,204.602468 L657.710797,204.472775 Z M656.484406,198.894698 C656.137352,198.969369 655.827321,199.099061 655.555148,199.284549 C655.282915,199.469262 655.146053,199.760266 655.146053,200.155416 C655.146053,200.439632 655.202004,200.662097 655.313907,200.82192 C655.425093,200.983291 655.555148,201.109172 655.704073,201.201946 C655.852281,201.29466 656.001206,201.359506 656.150191,201.396484 C656.261347,201.424174 656.352081,201.44848 656.421764,201.469403 L656.484406,201.489198 L656.484406,198.894698 Z" id="get_paid_instantly"></path>
            </g>
        </g>
    </g>
</svg>