<?xml version="1.0" encoding="UTF-8"?>
<svg width="40px" height="40px" viewBox="0 0 40 40" version="1.1" xmlns="http://www.w3.org/2000/svg" xmlns:xlink="http://www.w3.org/1999/xlink">
    <!-- Generator: Sketch 57.1 (83088) - https://sketch.com -->
    <title>grow</title>
    <desc>Created with Sketch.</desc>
    <g id="Website" stroke="none" stroke-width="1" fill="none" fill-rule="evenodd">
        <g id="ICO" transform="translate(-700.000000, -4340.000000)" fill="#FFFFFF">
            <g id="Journey" transform="translate(209.000000, 2952.000000)">
                <g id="grow" transform="translate(471.000000, 1368.000000)">
                    <path d="M47.4617057,32.9407345 L45.669823,32.9407345 C44.7374074,32.9407345 44.1649841,31.936058 44.6517936,31.1516607 L51.2183633,20.562498 C51.6845508,19.8125007 52.791401,19.8125007 53.2560053,20.562498 L59.822575,31.1516607 C60.3093845,31.936018 59.7369449,32.9407345 58.8045456,32.9407345 L57.0126629,32.9407345 L57.0126629,58.8234442 C57.0126629,59.4734419 56.4782766,60 55.8186156,60 L48.6557124,60 C47.9960514,60 47.4616652,59.4734419 47.4616652,58.8234442 L47.4617057,32.9407345 Z M42.6853544,39.9999096 L42.6853544,58.8234434 C42.6853544,59.4734411 42.1509681,59.9999992 41.4913072,59.9999992 L34.3284039,59.9999992 C33.668743,59.9999992 33.1343567,59.4734411 33.1343567,58.8234434 L33.1343567,39.9999096 C33.1343567,39.3499119 33.668743,38.8233537 34.3284039,38.8233537 L41.4913072,38.8233537 C42.1509681,38.8233537 42.6853544,39.3499119 42.6853544,39.9999096 Z M29.552215,49.4122765 L29.552215,58.8230442 C29.552215,59.4730419 29.0178287,59.9996002 28.3581677,59.9996002 L21.1940471,59.9996002 C20.5343861,59.9996002 20,59.4730419 20,58.8230442 L20,49.4122765 C20,48.7622788 20.5343861,48.2357206 21.1940471,48.2357206 L28.3581677,48.2357206 C29.0178287,48.2357206 29.552215,48.7622788 29.552215,49.4122765 Z"></path>
                </g>
            </g>
        </g>
    </g>
</svg>