<?xml version="1.0" encoding="UTF-8"?>
<svg width="30px" height="30px" viewBox="0 0 30 30" version="1.1" xmlns="http://www.w3.org/2000/svg" xmlns:xlink="http://www.w3.org/1999/xlink">
    <!-- Generator: Sketch 57.1 (83088) - https://sketch.com -->
    <title>instagram</title>
    <desc>Created with Sketch.</desc>
    <g id="Website" stroke="none" stroke-width="1" fill="none" fill-rule="evenodd">
        <g id="Homepage_Prelaunch" transform="translate(-1110.000000, -5151.000000)" fill="#FFFFFF" fill-rule="nonzero">
            <g id="Small-Footer" transform="translate(0.000000, 5096.000000)">
                <g id="Social-Media-Icons" transform="translate(1110.000000, 55.000000)">
                    <g id="instagram">
                        <path d="M15,0 C6.71594225,0 0,6.71594225 0,15 C0,23.2840577 6.71594225,30 15,30 C23.2840577,30 30,23.2840577 30,15 C30,6.71389444 23.2840577,0 15,0 Z M24.3742001,23.6989326 C24.3742001,24.0711232 24.0711232,24.3742001 23.6949009,24.3742001 L6.30100343,24.3742001 C5.92881278,24.3742001 5.62368812,24.073171 5.62368812,23.6989326 L5.62368812,6.30100343 C5.62368812,5.92881278 5.92676496,5.62368812 6.30100343,5.62368812 L23.6949009,5.62368812 C24.0691394,5.62368812 24.3742001,5.92676496 24.3742001,6.30100343 C24.3742001,6.30100343 24.3742001,23.6989326 24.3742001,23.6989326 Z M11.249488,15 C11.249488,12.9294655 12.9294655,11.249488 15,11.249488 C17.0705345,11.249488 18.750512,12.9294655 18.750512,15 C18.750512,17.0705345 17.0705345,18.750512 15,18.750512 C12.9294655,18.750512 11.249488,17.0704705 11.249488,15 Z M18.750512,7.49897609 L22.5010239,7.49897609 L22.5010239,11.249488 L18.750512,11.249488 L18.750512,7.49897609 L18.750512,7.49897609 Z M20.4548712,14.062356 L22.5009599,14.062356 L22.5009599,22.4989761 L7.50102391,22.4989761 L7.50102391,14.062356 L9.5491604,14.062356 C9.46980751,14.4386423 9.4230277,14.6013157 9.4230277,15 C9.4230277,18.0793401 11.9267394,20.5789561 15.0019838,20.5789561 C18.0813239,20.5789561 20.5809399,18.0792761 20.5809399,15 C20.5789561,14.6013157 20.5342241,14.4386423 20.4548712,14.062356 Z"></path>
                    </g>
                </g>
            </g>
        </g>
    </g>
</svg>