<?xml version="1.0" encoding="UTF-8"?>
<svg width="30px" height="30px" viewBox="0 0 30 30" version="1.1" xmlns="http://www.w3.org/2000/svg" xmlns:xlink="http://www.w3.org/1999/xlink">
    <!-- Generator: Sketch 57.1 (83088) - https://sketch.com -->
    <title>linkedin</title>
    <desc>Created with Sketch.</desc>
    <g id="Website" stroke="none" stroke-width="1" fill="none" fill-rule="evenodd">
        <g id="Homepage_Prelaunch" transform="translate(-1260.000000, -5151.000000)" fill="#FFFFFF" fill-rule="nonzero">
            <g id="Small-Footer" transform="translate(0.000000, 5096.000000)">
                <g id="Social-Media-Icons" transform="translate(1110.000000, 55.000000)">
                    <g id="linkedin" transform="translate(150.000000, 0.000000)">
                        <path d="M15,2.13162821e-14 C23.2715701,2.13162821e-14 30,6.72903408 30,15 C30,23.2703617 23.2703617,30 15,30 C6.72903408,30 2.13162821e-14,23.2703617 2.13162821e-14,15 C2.13162821e-14,6.72903408 6.72903408,2.13162821e-14 15,2.13162821e-14 Z M21.7707242,6.82812374 L8.12716507,6.82812374 C7.51812616,6.82812374 7.01593222,7.27813583 6.95167987,7.85639697 L6.94473536,7.9821558 L6.94473536,21.784621 C6.94473536,22.3801257 7.4063267,22.8693117 7.99841278,22.9318899 L8.12716507,22.938653 L21.7707242,22.938653 C22.3814549,22.938653 22.8832353,22.4891673 22.947425,21.9104851 L22.9543624,21.784621 L22.9543624,7.9821558 C22.9543624,7.34532345 22.4244743,6.82812374 21.7707242,6.82812374 Z M17.7334246,12.8683638 C19.2694394,12.8683638 20.4348329,13.8377246 20.5144661,15.9145794 L20.5188109,16.1413438 L20.5188109,20.3133811 L18.1001772,20.3133811 L18.1001772,16.4210908 C18.1001772,15.4422783 17.7503424,14.7752356 16.8754532,14.7752356 C16.2072021,14.7752356 15.8096351,15.2253686 15.6344155,15.6603964 C15.5822122,15.784621 15.5628776,15.9490615 15.5572319,16.1209264 L15.5552646,16.2507049 L15.5552646,20.3151937 L13.1372352,20.3151937 L13.13775,20.2038382 C13.1415873,19.3598759 13.1648896,13.9801886 13.1395296,13.1038348 L13.1372352,13.0399581 L15.5552646,13.0399581 L15.5552646,14.0695239 C15.8760976,13.5740756 16.4494884,12.8683638 17.7334246,12.8683638 Z M11.7971079,13.0399581 L11.7971079,20.3151937 L9.37907839,20.3151937 L9.37907839,13.0399581 L11.7971079,13.0399581 Z M10.6044067,9.53254652 C11.4321679,9.53254652 11.9403045,10.0757271 11.9566181,10.7892935 C11.9566181,11.4871506 11.4315637,12.0460404 10.5880931,12.0460404 L10.5880931,12.0460404 L10.5723838,12.0460404 C9.76154032,12.0460404 9.23648594,11.4871506 9.23648594,10.7892935 C9.23648594,10.0751229 9.77785386,9.53254652 10.6044067,9.53254652 Z"></path>
                    </g>
                </g>
            </g>
        </g>
    </g>
</svg>