<?xml version="1.0" encoding="UTF-8"?>
<svg width="40px" height="40px" viewBox="0 0 40 40" version="1.1" xmlns="http://www.w3.org/2000/svg" xmlns:xlink="http://www.w3.org/1999/xlink">
    <!-- Generator: Sketch 57.1 (83088) - https://sketch.com -->
    <title>official_launch</title>
    <desc>Created with Sketch.</desc>
    <g id="Website" stroke="none" stroke-width="1" fill="none" fill-rule="evenodd">
        <g id="ICO" transform="translate(-700.000000, -4820.000000)" fill="#FFFFFF">
            <g id="Journey" transform="translate(209.000000, 2952.000000)">
                <g id="official_lunch" transform="translate(471.000000, 1848.000000)">
                    <path d="M59.9773244,22.3818483 C60.0775414,21.7124288 59.8420327,21.0366031 59.3409521,20.5584288 C58.8849772,20.1408475 58.2569428,19.9416048 57.6306187,20.0149284 C44.7513805,21.5084121 37.3755677,27.0135166 33.1600235,32.4313835 L31.1891208,32.3341573 C29.7543648,32.2640245 28.3563811,32.7756494 27.3408706,33.74632 L24.2626125,36.6838337 C24.1874519,36.7555578 24.1540448,36.8591616 24.17409,36.9579832 C24.1958026,37.0583961 24.265952,37.1412799 24.3644971,37.1811285 L29.273154,39.1240609 C28.7186211,40.4565347 28.2776972,41.8288733 27.9520069,43.2284685 C27.8367604,43.7321449 27.9971041,44.2580999 28.3795903,44.6247178 L34.2037031,50.1649948 C34.5861893,50.5299929 35.1373741,50.6829931 35.665183,50.5730281 C37.1316656,50.262221 38.5697567,49.8414243 39.9675267,49.3122867 L42.0035503,53.9965096 L42.0018828,53.9965096 C42.0436363,54.0905491 42.1304913,54.157491 42.2357153,54.178211 C42.3409393,54.1973396 42.4478351,54.1654599 42.523,54.0937358 L45.601258,51.1562221 L45.6029256,51.1562221 C46.6184361,50.1871428 47.1545828,48.8530778 47.0810813,47.4839218 L46.9791967,45.6031329 C52.6446761,41.6248076 58.3871205,34.5988812 59.9768754,22.3819544 L59.9773244,22.3818483 Z M43.729157,39.2548438 C42.9407788,40.0071757 41.7549192,40.2318796 40.7244005,39.8254376 C39.6938391,39.4174043 39.0207374,38.457873 39.0207374,37.3931916 C39.0207374,36.3285101 39.6938391,35.3689789 40.7244005,34.9625368 C41.7549619,34.5545035 42.9408216,34.7808355 43.729157,35.5331307 C44.8047857,36.5595794 44.8064533,38.2219889 43.7341683,39.2500698 L43.729157,39.2548438 Z M45.4394904,33.9185835 L45.4394904,33.9169922 C44.4005912,32.9271808 44.0899519,31.4369205 44.6511122,30.1410923 C45.2123154,28.8468512 46.5368403,28.0020998 48.0049905,28.0020998 C49.4748083,28.0020998 50.7976229,28.8468512 51.3605364,30.1410923 C51.9217396,31.4369246 51.6094027,32.9271848 50.5704907,33.9169922 C49.8890083,34.5689071 48.9637179,34.9354802 47.9983202,34.933894 C47.0329226,34.933894 46.1075894,34.565704 45.4278174,33.9138054 L45.4394904,33.9185835 Z M23.2821212,51.1690098 C22.420285,50.8821134 21.4966194,50.8119806 20.598053,50.9649932 C20.4427206,50.9904952 20.2823768,50.9442732 20.1704697,50.8374827 C20.0218161,50.700408 19.9817301,50.486827 20.0669133,50.3083043 C20.9989167,48.3382784 23.564416,44.3759072 28.1610653,47.5748072 L28.1610653,47.5732158 C28.2095019,47.6162511 28.2378977,47.6752242 28.2378977,47.737384 C28.2378977,47.7995438 28.2095062,47.8585209 28.1610653,47.8999608 C26.9033716,48.8419466 26.1918301,50.3003395 26.2452781,51.8256906 C26.2519612,52.0073919 26.4056218,52.1540309 26.596029,52.1604044 C28.1844156,52.2209729 29.7076813,51.5594937 30.7015133,50.3768498 C30.7449386,50.327441 30.810081,50.2971568 30.8785584,50.2971568 C30.9470402,50.2971568 31.0121782,50.3274369 31.0556036,50.3768498 C31.6969786,51.1068623 33.4590924,53.4785562 31.5082433,55.7706428 L31.5099152,55.7722341 C30.6514133,56.7508621 29.4221112,57.367727 28.0892484,57.4856486 C26.1868445,57.6848831 22.6892974,58.2570765 21.2479139,59.8270664 C21.1309955,59.9641411 20.9455996,60.0263008 20.765215,59.9896431 C20.5848262,59.9545781 20.4411881,59.8254751 20.3927515,59.6565207 C19.9050499,58.0068414 19.1400605,54.3345408 23.2822751,51.169018 L23.2821212,51.1690098 Z" id="official_launch"></path>
                </g>
            </g>
        </g>
    </g>
</svg>