<?xml version="1.0" encoding="UTF-8"?>
<svg width="36px" height="44px" viewBox="0 0 36 44" version="1.1" xmlns="http://www.w3.org/2000/svg" xmlns:xlink="http://www.w3.org/1999/xlink">
    <!-- Generator: Sketch 57.1 (83088) - https://sketch.com -->
    <title>raising_funds</title>
    <desc>Created with Sketch.</desc>
    <g id="Website" stroke="none" stroke-width="1" fill="none" fill-rule="evenodd">
        <g id="ICO" transform="translate(-702.000000, -4098.000000)" fill="#FFFFFF">
            <g id="Journey" transform="translate(209.000000, 2952.000000)">
                <g id="raising_funds" transform="translate(471.000000, 1128.000000)">
                    <path d="M47.0931644,29.5803736 C44.8726124,29.8589786 42.5088363,29.9964748 40,29.9964748 C37.53817,29.9964748 35.1251727,29.8571724 32.9068404,29.5803736 C27.7439218,33.7956659 22,40.8350781 22,47.2268389 C22,57.2764596 30.0582837,62 40,62 C49.9417211,62 58,57.2764596 58,47.2268389 C58,40.7883013 52.2565607,33.7958512 47.0931644,29.5803736 Z M41.3516554,53.2003864 L41.3516554,55.0999912 C41.3516554,55.2845237 41.2065107,55.4708625 40.9652303,55.4708625 L39.0349869,55.4708625 C38.8427153,55.4708625 38.6485618,55.33156 38.6485618,55.0999912 L38.6485618,53.2474412 C36.7183184,53.1081387 35.1254815,51.6735147 34.9332293,49.8209647 C34.9332293,49.6364322 35.1255008,49.4500934 35.3196543,49.4500934 L37.2498978,49.4500934 C37.4421693,49.4500934 37.587314,49.5423597 37.6363228,49.7286984 C37.7324586,50.2840929 38.3111359,50.7020282 38.8917532,50.7020282 L40.5807161,50.7020282 C41.594866,50.7020282 42.5109596,50.007322 42.6070857,49.0810469 C42.7522303,47.9702579 41.8342162,47.0439829 40.7258704,47.0439829 L39.4704401,47.0439829 C37.106664,47.0439829 34.9822381,45.3759469 34.7409577,43.0602593 C34.4996773,40.6523148 36.2847664,38.6133983 38.6975707,38.2894799 L38.6975707,36.4369299 C38.6975707,36.2523974 38.8898422,36.0660586 39.0839957,36.0660586 L41.0142392,36.0660586 C41.2065107,36.0660586 41.4006642,36.2053611 41.4006642,36.4369299 L41.4006642,38.2894799 C43.3309077,38.4287824 44.9237445,39.8634064 45.1159968,41.7159564 C45.1159968,41.9004889 44.9708521,42.0868277 44.7295717,42.0868277 L42.7993283,42.0868277 C42.6541836,42.0868277 42.4619121,41.9945614 42.4129032,41.8082227 C42.2677585,41.2528282 41.7380901,40.8348929 41.1103749,40.8348929 L39.4214119,40.8348929 C38.4072621,40.8348929 37.5401967,41.5295991 37.3950424,42.4558742 C37.2989066,43.5666632 38.1679119,44.4929382 39.2762576,44.4929382 L40.7239402,44.4929382 C43.4270531,44.4929382 45.5495487,46.6693139 45.2592401,49.308642 C45.0669686,51.3475122 43.3780249,52.8762365 41.3516071,53.2000622 L41.3516554,53.2003864 Z M40.0000989,27.2646861 C42.3167771,27.2646861 44.5353989,27.1253836 46.5638917,26.8938148 C47.9154481,24.1149898 49.1218502,21.2889247 49.1218502,20.0389166 C49.1218502,18.1863665 46.6600178,17.2130367 45.2123352,19.2048985 C43.2820918,21.7992096 42.4130962,18 40.1946675,18 C37.9741154,18 36.8167415,21.5205861 35.0785573,19.1578438 C33.4857204,17.0284765 30.8316357,18.325632 30.8316357,19.993668 C30.8316357,21.6146493 31.9419117,24.3464196 33.1954118,26.8934906 C35.2708095,27.1250594 37.5874877,27.2643619 40.000485,27.2643619 L40.0000989,27.2646861 Z"></path>
                </g>
            </g>
        </g>
    </g>
</svg>