<?xml version="1.0" encoding="UTF-8"?>
<svg width="80px" height="80px" viewBox="0 0 80 80" version="1.1" xmlns="http://www.w3.org/2000/svg" xmlns:xlink="http://www.w3.org/1999/xlink">
    <!-- Generator: Sketch 57.1 (83088) - https://sketch.com -->
    <title>smart_contracts</title>
    <desc>Created with Sketch.</desc>
    <g id="Website" stroke="none" stroke-width="1" fill="none" fill-rule="evenodd">
        <g id="Homepage_Prelaunch" transform="translate(-448.000000, -1756.000000)" fill="#3B3D47" fill-rule="nonzero">
            <g id="Why?" transform="translate(146.000000, 1566.000000)">
                <path d="M373.68691,190 C375.954116,190 378.005398,190.876979 379.516869,192.241169 C381.136302,193.702801 382,195.651644 382,197.697929 L382,197.697929 L382,204.421437 C382,207.442144 379.300945,209.780755 376.062078,209.780755 L376.062078,209.780755 L366.993252,209.780755 L366.993252,211.437272 L374.334683,211.437272 C377.789474,211.437272 380.596491,213.970767 380.596491,217.088916 L380.596491,217.088916 L380.596491,253.337393 C380.596491,256.065773 378.11336,258.306943 375.090418,258.306943 L375.090418,258.306943 L354.145749,258.306943 L354.145749,268.051157 L358.896086,268.051157 C359.54386,268.051157 359.975709,268.440926 359.975709,269.025579 C359.975709,269.610231 359.54386,270 358.896086,270 L358.896086,270 L324.240216,270 C323.592443,270 323.160594,269.610231 323.160594,269.025579 C323.160594,268.440926 323.592443,268.051157 324.240216,268.051157 L324.240216,268.051157 L328.990553,268.051157 L328.990553,258.306943 L307.506073,258.306943 C304.483131,258.306943 302,256.065773 302,253.337393 L302,253.337393 L302,216.991474 C302,213.873325 304.807018,211.339829 308.261808,211.339829 L308.261808,211.339829 L314.415655,211.339829 L314.415655,197.697929 C314.415655,193.410475 318.302294,190 322.944669,190 L322.944669,190 Z M351.986505,258.306943 L331.149798,258.306943 L331.149798,268.051157 L351.986505,268.051157 L351.986505,258.306943 Z M343.673414,249.53715 L339.57085,249.53715 C338.923077,249.53715 338.491228,249.926918 338.491228,250.511571 C338.491228,251.096224 338.923077,251.485993 339.57085,251.485993 L339.57085,251.485993 L343.673414,251.485993 C344.321188,251.485993 344.753036,251.096224 344.753036,250.511571 C344.753036,249.926918 344.321188,249.53715 343.673414,249.53715 L343.673414,249.53715 Z M314.415655,213.386114 L308.261808,213.386114 C305.994602,213.386114 304.159244,215.042631 304.159244,217.088916 L304.159244,217.088916 L304.159244,241.741778 L314.415655,241.741778 L314.415655,213.386114 Z M374.442645,213.386114 L367.101215,213.386114 L367.101215,241.741778 L378.545209,241.741778 L378.545209,217.088916 C378.545209,215.042631 376.709852,213.386114 374.442645,213.386114 L374.442645,213.386114 Z M367.85695,192.046285 L322.944669,192.046285 C319.381916,192.046285 316.574899,194.677223 316.574899,197.795371 L316.574899,197.795371 L316.574899,241.741778 L364.94197,241.741778 L364.94197,197.795371 C364.94197,195.45676 366.021592,193.410475 367.85695,192.046285 L367.85695,192.046285 Z M326.831309,225.663825 C328.798963,225.663825 330.394062,227.103494 330.394062,228.879415 C330.394062,230.655337 328.798963,232.095006 326.831309,232.095006 C324.863655,232.095006 323.268556,230.655337 323.268556,228.879415 C323.268556,227.103494 324.863655,225.663825 326.831309,225.663825 Z M349.82726,227.904994 C350.475034,227.904994 350.906883,228.294762 350.906883,228.879415 C350.906883,229.425091 350.530694,229.801001 349.953872,229.848698 L349.82726,229.853837 L349.071525,229.853837 C348.423752,229.853837 347.991903,229.464068 347.991903,228.879415 C347.991903,228.333739 348.368091,227.957829 348.944913,227.910133 L349.071525,227.904994 L349.82726,227.904994 Z M335.360324,227.904994 L343.673414,227.904994 C344.321188,227.904994 344.753036,228.294762 344.753036,228.879415 C344.753036,229.425091 344.376848,229.801001 343.800026,229.848698 L343.673414,229.853837 L335.360324,229.853837 C334.712551,229.853837 334.280702,229.464068 334.280702,228.879415 C334.280702,228.333739 334.65689,227.957829 335.233712,227.910133 L335.360324,227.904994 L343.673414,227.904994 Z M326.831309,213.678441 C328.798963,213.678441 330.394062,215.11811 330.394062,216.894032 C330.394062,218.669953 328.798963,220.109622 326.831309,220.109622 C324.863655,220.109622 323.268556,218.669953 323.268556,216.894032 C323.268556,215.11811 324.863655,213.678441 326.831309,213.678441 Z M353.066127,215.91961 C353.7139,215.91961 354.145749,216.309379 354.145749,216.894032 C354.145749,217.439708 353.769561,217.815618 353.192739,217.863314 L353.066127,217.868453 L335.360324,217.868453 C334.712551,217.868453 334.280702,217.478685 334.280702,216.894032 C334.280702,216.348356 334.65689,215.972446 335.233712,215.924749 L335.360324,215.91961 L353.066127,215.91961 Z M326.831309,201.693057 C328.798963,201.693057 330.394062,203.132726 330.394062,204.908648 C330.394062,206.68457 328.798963,208.124239 326.831309,208.124239 C324.863655,208.124239 323.268556,206.68457 323.268556,204.908648 C323.268556,203.132726 324.863655,201.693057 326.831309,201.693057 Z M373.578947,192.046285 L372.931174,192.046285 C371.527665,192.143727 370.232119,192.72838 369.044534,193.702801 C367.748988,194.774665 366.993252,196.431181 366.993252,197.990256 L366.993252,197.990256 L366.993252,207.831912 L375.954116,207.831912 C378.005398,207.831912 379.732794,206.272838 379.732794,204.421437 L379.732794,204.421437 L379.732794,197.697929 C379.732794,196.236297 379.08502,194.774665 377.897436,193.702801 C376.709852,192.630938 375.198381,192.046285 373.578947,192.046285 L373.578947,192.046285 Z M353.066127,203.934227 C353.7139,203.934227 354.145749,204.323995 354.145749,204.908648 C354.145749,205.454324 353.769561,205.830234 353.192739,205.87793 L353.066127,205.883069 L335.360324,205.883069 C334.712551,205.883069 334.280702,205.493301 334.280702,204.908648 C334.280702,204.362972 334.65689,203.987062 335.233712,203.939366 L335.360324,203.934227 L353.066127,203.934227 Z" id="smart_contracts"></path>
            </g>
        </g>
    </g>
</svg>