<?xml version="1.0" encoding="UTF-8"?>
<svg width="40px" height="40px" viewBox="0 0 40 40" version="1.1" xmlns="http://www.w3.org/2000/svg" xmlns:xlink="http://www.w3.org/1999/xlink">
    <!-- Generator: Sketch 57.1 (83088) - https://sketch.com -->
    <title>strategy</title>
    <desc>Created with Sketch.</desc>
    <g id="Website" stroke="none" stroke-width="1" fill="none" fill-rule="evenodd">
        <g id="ICO" transform="translate(-700.000000, -3384.000000)" fill="#FFFFFF">
            <g id="Journey" transform="translate(209.000000, 2952.000000)">
                <g id="strategy" transform="translate(471.000000, 408.000000)">
                    <path d="M20.8006227,24 L59.1993773,24 C59.641257,24 60,24.375105 60,24.8371124 C60,25.2635915 59.6943159,25.6160037 59.2997461,25.6676974 L59.1993773,25.6742247 L58.14,25.674 L58.1408216,51.6473085 C58.1408216,52.0716744 57.8407297,52.4258747 57.4418582,52.4778561 L57.3401989,52.4844209 L40.8,52.484 L40.8006787,56.3105343 C42.4697394,56.697092 43.7231728,58.2500564 43.7231728,60.1026878 C43.7231728,62.2525858 42.0519842,64 39.995744,64 C37.9461118,64 36.2748672,62.2526443 36.2748672,60.1026878 C36.2748672,58.3164734 37.4412235,56.8081125 39.0160633,56.3557195 L39.1995453,56.3082508 L39.199,52.484 L22.6598011,52.4844209 C22.2539334,52.4844209 21.9151725,52.162859 21.8654571,51.7518028 L21.8591784,51.6473085 L21.859,25.674 L20.8006227,25.6742247 C20.358743,25.6742247 20,25.2991197 20,24.8371124 C20,24.4106332 20.3056841,24.058221 20.7002539,24.0065273 L20.8006227,24 L59.1993773,24 Z M48.3806388,29.28803 C48.0678264,28.9609666 47.5647226,28.9609666 47.2519159,29.28803 L47.2519159,29.28803 L44.9878621,31.6460789 C44.6750554,31.9799988 44.6750554,32.5060323 44.9878621,32.8330957 C45.3006745,33.1601591 45.8037783,33.1601591 46.116585,32.8330957 L46.116585,32.8330957 L46.9084719,32.0051174 C46.122801,38.2286265 41.1007736,43.0728353 34.9800446,43.2558091 C34.6213128,41.817196 33.3722473,40.7559481 31.8847925,40.7559481 C30.117341,40.7559481 28.6845417,42.2540496 28.6845417,44.1020555 C28.6845417,45.9432108 30.117341,47.4481628 31.8847925,47.4481628 C33.3809832,47.4481628 34.6278591,46.3777808 34.9800446,44.9299752 L34.98,44.93 L35.3050366,44.9177394 C42.1124651,44.5768461 47.6645352,39.1216764 48.5102022,32.1550174 L48.5469009,31.8221436 L49.5159696,32.8330957 C49.6669047,32.9909099 49.8769022,33.0755345 50.0759631,33.0755345 C50.2837599,33.0755345 50.4937575,32.9909099 50.6446925,32.8330957 C50.9574993,32.5083685 50.9574993,31.9731424 50.6446925,31.6460789 L50.6446925,31.6460789 Z M51.0821538,41.4511899 C50.7715814,41.1241265 50.2662489,41.1241265 49.946879,41.4511899 L49.946879,41.4511899 L48.5468953,42.9149801 L47.1469115,41.4511899 C46.8340991,41.1241265 46.3309954,41.1241265 46.0181886,41.4511899 C45.7053818,41.7759171 45.7053818,42.304281 46.0181886,42.6382067 L46.0181886,42.6382067 L47.4181723,44.1019969 L46.0181886,45.5657871 C45.7053818,45.8928564 45.7053818,46.4188899 46.0181886,46.7459534 C46.1691236,46.9129191 46.3791212,46.9975438 46.5781821,46.9975438 C46.7859789,46.9975438 46.9959764,46.9129191 47.1469115,46.7459534 L47.1469115,46.7459534 L48.5468953,45.2821631 L49.946879,46.7459534 C50.10655,46.9129191 50.3165475,46.9975438 50.5156084,46.9975438 C50.7234052,46.9975438 50.9246501,46.9129191 51.0843378,46.7459534 C51.3971446,46.4188841 51.3971446,45.8928506 51.0843378,45.5657871 L51.0843378,45.5657871 L49.6821701,44.1019969 L51.0821538,42.6382067 C51.3949606,42.3042869 51.3949606,41.7782533 51.0821538,41.4511899 Z M34.9800446,44.9299752 L34.98,44.93 L34.9799382,44.9300923 L34.9800446,44.9299752 Z M35.8834822,29.3634445 C34.3653398,29.3634445 33.1316181,30.6534535 33.1316181,32.2407291 C33.1316181,33.8303467 34.3632118,35.1180137 35.8834822,35.1180137 C37.4038085,35.1180137 38.6353462,33.8302882 38.6353462,32.2407291 C38.6353462,30.6511115 37.4037525,29.3634445 35.8834822,29.3634445 Z"></path>
                </g>
            </g>
        </g>
    </g>
</svg>