<?xml version="1.0" encoding="UTF-8"?>
<svg width="600px" height="640px" viewBox="0 0 600 640" version="1.1" xmlns="http://www.w3.org/2000/svg" xmlns:xlink="http://www.w3.org/1999/xlink">
    <!-- Generator: Sketch 57.1 (83088) - https://sketch.com -->
    <title>talent_seeker_illustration</title>
    <desc>Created with Sketch.</desc>
    <g id="Website" stroke="none" stroke-width="1" fill="none" fill-rule="evenodd">
        <g id="Homepage_Prelaunch" transform="translate(-150.000000, -3940.000000)">
            <g id="For-Talent-Seekers" transform="translate(150.000000, 3940.000000)">
                <g id="talent_seeker_imagery">
                    <g id="talent_seeker_illustration" transform="translate(300.000000, 320.000000) scale(1, -1) translate(-300.000000, -320.000000) ">
                        <rect id="Rectangle-3" fill="#FFA17A" opacity="0.100000001" x="540" y="364" width="60" height="80"></rect>
                        <rect id="Rectangle-3" fill="#008D7F" opacity="0.100000001" x="0" y="325" width="120" height="120"></rect>
                        <path d="M489,0 C491.209139,0 493,1.790861 493,4 C493,6.209139 491.209139,8 489,8 C488.947115,8 488.894469,7.99897367 488.842082,7.99693983 L381.449778,260.270825 C382.942241,260.851461 384,262.302204 384,264 C384,264.718419 383.810604,265.392602 383.479018,265.975343 L485.840396,312.546761 C486.572246,311.605546 487.715406,311 489,311 C491.209139,311 493,312.790861 493,315 C493,315.943254 492.673508,316.810252 492.127368,317.494148 L591.310651,486.373191 C591.823859,486.133734 592.396312,486 593,486 C595.209139,486 597,487.790861 597,490 C597,492.209139 595.209139,494 593,494 C591.167916,494 589.623513,492.768296 589.149687,491.087786 L367.999689,511.050387 C367.972705,513.236306 366.192319,515 364,515 C363.47731,515 362.978036,514.899746 362.520358,514.717417 L339.321364,632.057332 C339.541939,632.019636 339.768677,632 340,632 C342.209139,632 344,633.790861 344,636 C344,638.209139 342.209139,640 340,640 C337.790861,640 336,638.209139 336,636 C336,634.938675 336.413345,633.973892 337.087835,633.257851 L153.848298,513.808416 C153.122926,514.544024 152.114712,515 151,515 C149.441569,515 148.091296,514.108767 147.431055,512.808175 L70.9864999,549.668992 C70.9954412,549.778146 71,549.888541 71,550 C71,552.209139 69.209139,554 67,554 C64.790861,554 63,552.209139 63,550 C63,547.943973 64.55122,546.250253 66.5471487,546.025351 L111.679669,416.258616 C110.662936,415.53334 110,414.344089 110,413 C110,411.43081 110.903581,410.072663 112.21882,409.417479 L82.1994021,148.919864 C80.3739077,148.549017 79,146.934955 79,145 C79,142.790861 80.790861,141 83,141 C85.209139,141 87,142.790861 87,145 C87,147.209139 85.209139,149 83,149 C82.9028128,149 82.8064352,148.996534 82.710984,148.989719 L112.700436,409.215843 C113.107896,409.075943 113.545079,409 114,409 C116.209139,409 118,410.790861 118,413 C118,413.416826 117.936243,413.81876 117.81795,414.196584 L360.356743,509.346362 C360.850686,508.259854 361.816371,507.433214 362.992208,507.128031 L378.065531,267.501959 C376.833883,266.820148 376,265.507456 376,264 C376,263.081787 376.309387,262.235835 376.829602,261.560705 L243.64576,87.000057 C242.940635,87.6223865 242.014416,88 241,88 C238.790861,88 237,86.209139 237,84 C237,81.790861 238.790861,80 241,80 C242.718976,80 244.184696,81.0843144 244.750497,82.6062794 L485.137577,5.04387141 C485.047858,4.71108947 485,4.36113362 485,4 C485,1.790861 486.790861,0 489,0 Z M360.054455,511.661579 L154.945545,511.661579 C154.836363,512.317566 154.567545,512.919566 154.180366,513.426304 L337.464619,632.906008 C337.851571,632.588546 338.299144,632.34225 338.787339,632.187121 L362.053537,514.495292 C361.012217,513.914158 360.257443,512.881174 360.054455,511.661579 Z M112.573197,416.738031 L67.6001762,546.044727 C69.0744948,546.266566 70.2852752,547.293074 70.7710004,548.662735 L147.092654,511.859898 C147.031976,511.582917 147,511.295193 147,511 C147,509.812606 147.517375,508.746052 148.33899,508.013471 L146.892,504.134 L114.301026,416.988843 C114.201651,416.996237 114.101265,417 114,417 C113.497356,417 113.016365,416.907288 112.573197,416.738031 Z M117.400708,415.107029 C116.933213,415.85996 116.222638,416.446192 115.378637,416.75607 L147.486,502.864 L149.193821,507.430042 C149.73638,507.154997 150.350089,507 151,507 C153.094961,507 154.813764,508.610526 154.985838,510.661008 L360.014162,510.661008 C360.024245,510.540861 360.039638,510.422224 360.060106,510.305333 L117.400708,415.107029 Z M491.387079,318.209958 C490.720778,318.70626 489.894692,319 489,319 C488.338135,319 487.713815,318.839249 487.163954,318.554659 L365.866032,507.461023 C366.866671,507.989732 367.616014,508.930403 367.888261,510.057234 L589.002,490.096 L589,490 C589,488.75364 589.570036,487.64042 590.463619,486.906828 L491.387079,318.209958 Z M383.202415,266.397172 C382.472782,267.370338 381.309924,268 380,268 C379.489413,268 379.00117,267.904335 378.552218,267.72995 L363.500241,507.030917 C363.663961,507.010511 363.830753,507 364,507 C364.311929,507 364.615518,507.035705 364.906904,507.10325 L476.647,333.083 L486.32381,317.972924 C485.511007,317.240776 485,316.180064 485,315 C485,314.257344 485.202391,313.56196 485.555025,312.965993 L383.202415,266.397172 Z M485.518724,5.97136858 L244.978545,83.5831893 C244.99273,83.7201915 245,83.8592468 245,84 C245,84.826797 244.74915,85.5950049 244.319407,86.2326679 L377.541793,260.844265 C378.220006,260.315206 379.073193,260 380,260 C380.158262,260 380.314376,260.009191 380.46784,260.027069 L487.828595,7.82574204 C486.842552,7.52419743 486.018424,6.85190215 485.518724,5.97136858 Z" id="Combined-Shape" fill="#54AFA6" fill-rule="nonzero"></path>
                    </g>
                </g>
            </g>
        </g>
    </g>
</svg>