<?xml version="1.0" encoding="UTF-8"?>
<svg width="30px" height="30px" viewBox="0 0 30 30" version="1.1" xmlns="http://www.w3.org/2000/svg" xmlns:xlink="http://www.w3.org/1999/xlink">
    <!-- Generator: Sketch 57.1 (83088) - https://sketch.com -->
    <title>twitter</title>
    <desc>Created with Sketch.</desc>
    <g id="Website" stroke="none" stroke-width="1" fill="none" fill-rule="evenodd">
        <g id="Homepage_Prelaunch" transform="translate(-1160.000000, -5151.000000)" fill="#FFFFFF" fill-rule="nonzero">
            <g id="Small-Footer" transform="translate(0.000000, 5096.000000)">
                <g id="Social-Media-Icons" transform="translate(1110.000000, 55.000000)">
                    <g id="twitter" transform="translate(50.000000, 0.000000)">
                        <path d="M15,0 C6.71624944,0 0,6.71624944 0,15 C0,23.2837506 6.71624944,30 15,30 C23.2837506,30 30,23.2837506 30,15 C30,6.71439909 23.2837506,0 15,0 Z M22.4624994,11.6324693 L22.4737249,12.1106021 C22.4737249,16.9930838 18.7593752,22.6181146 11.9662124,22.6181146 C9.88122749,22.6181146 7.94057057,22.0068792 6.30559302,20.9587123 C6.59437244,20.9924505 6.88870294,21.0112008 7.18685751,21.0112008 C8.91749864,21.0112008 10.5093628,20.4205661 11.7730966,19.4305622 C10.1568694,19.4005864 8.7937096,18.3318188 8.32310153,16.865594 C8.54995559,16.9087074 8.77872169,16.9293697 9.0187133,16.9293697 C9.35621885,16.9293697 9.68243721,16.8862564 9.9918173,16.80188 C8.30243918,16.460612 7.02933025,14.9700242 7.02933025,13.1812818 L7.02933025,13.134406 C7.52806378,13.4118982 8.09618579,13.5768886 8.70180842,13.5975509 C7.71180447,12.9356774 7.05930607,11.8050461 7.05930607,10.5244124 C7.05930607,9.84755095 7.2411964,9.21380286 7.55803961,8.66819356 C9.37866988,10.903181 12.1011653,12.3731681 15.1705415,12.526933 C15.1067657,12.2569039 15.0749396,11.9737989 15.0749396,11.6850812 C15.0749396,9.64697199 16.7286674,7.99318245 18.7686886,7.99318245 C19.8299314,7.99318245 20.7899595,8.44127782 21.464909,9.15940229 C22.3049104,8.99249988 23.0961858,8.68503183 23.8105479,8.26314989 C23.534906,9.12566407 22.9499457,9.84940131 22.1867958,10.3068718 C22.9311954,10.218733 23.6455575,10.0180924 24.307431,9.72561226 C23.8124599,10.4643374 23.1843246,11.1149854 22.4624994,11.6324693 Z"></path>
                    </g>
                </g>
            </g>
        </g>
    </g>
</svg>