<?xml version="1.0" encoding="UTF-8"?>
<svg width="126px" height="14px" viewBox="0 0 126 14" version="1.1" xmlns="http://www.w3.org/2000/svg" xmlns:xlink="http://www.w3.org/1999/xlink">
    <!-- Generator: Sketch 57.1 (83088) - https://sketch.com -->
    <title>veelancing_logo</title>
    <desc>Created with Sketch.</desc>
    <g id="Website" stroke="none" stroke-width="1" fill="none" fill-rule="evenodd">
        <g id="Homepage_Prelaunch" transform="translate(-30.000000, -38.000000)" fill="#FFFFFF" fill-rule="nonzero">
            <g id="Header">
                <g id="Top-Menu">
                    <path d="M30,38.1977401 L32.7378271,38.1977401 L35.4556701,47.6299435 L38.1735131,38.1977401 L40.9113402,38.1977401 L36.4948454,51.8418079 L34.3965107,51.8418079 L30,38.1977401 Z M46.7866772,40.4519774 L46.7866772,43.8333333 L52.0225218,43.8333333 L52.0225218,46.0875706 L46.7866772,46.0875706 L46.7866772,49.5875706 L52.9218081,49.5875706 L52.9218081,51.8418079 L44.168755,51.8418079 L44.168755,38.1977401 L52.9218081,38.1977401 L52.9218081,40.4519774 L46.7866772,40.4519774 Z M59.4166534,40.4519774 L59.4166534,43.8333333 L64.652498,43.8333333 L64.652498,46.0875706 L59.4166534,46.0875706 L59.4166534,49.5875706 L65.5517843,49.5875706 L65.5517843,51.8418079 L56.7987312,51.8418079 L56.7987312,38.1977401 L65.5517843,38.1977401 L65.5517843,40.4519774 L59.4166534,40.4519774 Z M69.4287074,38.1977401 L72.0466297,38.1977401 L72.0466297,49.5875706 L78.0818398,49.5875706 L78.0818398,51.8418079 L69.4287074,51.8418079 L69.4287074,38.1977401 Z M88.9731959,49.1920904 L84.2369548,49.1920904 L83.3976209,51.8418079 L80.6398097,51.8418079 L85.5359239,38.1977401 L87.6742268,38.1977401 L92.5903251,51.8418079 L89.8125297,51.8418079 L88.9731959,49.1920904 Z M88.273751,47.0367232 L86.5950833,41.7966102 L84.9363997,47.0367232 L88.273751,47.0367232 Z M106.159556,38.1977401 L106.159556,51.8418079 L103.541634,51.8418079 L98.4656622,43.319209 L98.4656622,51.8418079 L95.8477399,51.8418079 L95.8477399,38.1977401 L98.4656622,38.1977401 L103.541634,46.740113 L103.541634,38.1977401 L106.159556,38.1977401 Z M110.336241,46.5621469 L110.336241,43.4378531 C110.336241,39.8126181 112.02157,38 115.392228,38 C116.8977,38 118.096749,38.3954802 118.989374,39.1864407 C119.881999,39.9774011 120.328311,41.0913367 120.328311,42.5282486 L120.328311,42.6666667 L117.710389,42.6666667 L117.710389,42.5480226 C117.710389,41.8493413 117.507217,41.295669 117.100872,40.8870056 C116.694528,40.4783423 116.118319,40.2740113 115.372244,40.2740113 C114.53291,40.2740113 113.923394,40.5310734 113.543695,41.0451977 C113.163997,41.559322 112.974148,42.403013 112.974148,43.5762712 L112.974148,46.5225989 C112.974148,47.6299435 113.170658,48.4340867 113.56368,48.9350282 C113.956701,49.4359701 114.572879,49.6864407 115.412213,49.6864407 C116.158287,49.6864407 116.727835,49.4887006 117.120856,49.0932203 C117.513878,48.6977401 117.710389,48.1572506 117.710389,47.4717514 L117.710389,47.3135593 L120.288343,47.3135593 L120.288343,47.4519774 C120.288343,48.9152542 119.848692,50.0390771 118.969389,50.8234463 C118.090087,51.6078155 116.884377,52 115.35226,52 C112.008247,52 110.336241,50.1873822 110.336241,46.5621469 Z M124.425059,38.1977401 L127.042982,38.1977401 L127.042982,51.8418079 L124.425059,51.8418079 L124.425059,38.1977401 Z M141.831245,38.1977401 L141.831245,51.8418079 L139.213323,51.8418079 L134.137351,43.319209 L134.137351,51.8418079 L131.519429,51.8418079 L131.519429,38.1977401 L134.137351,38.1977401 L139.213323,46.740113 L139.213323,38.1977401 L141.831245,38.1977401 Z M146.00793,46.5621469 L146.00793,43.4378531 C146.00793,39.8126181 147.693259,38 151.063918,38 C152.56939,38 153.768438,38.3921842 154.661063,39.1765537 C155.553688,39.9609232 156,41.0451977 156,42.4293785 L156,42.5677966 L153.382078,42.5677966 L153.382078,42.4293785 C153.382078,41.8097932 153.178906,41.295669 152.772561,40.8870056 C152.366217,40.4783423 151.790008,40.2740113 151.043933,40.2740113 C150.2046,40.2740113 149.595083,40.5310734 149.215385,41.0451977 C148.835686,41.559322 148.645837,42.403013 148.645837,43.5762712 L148.645837,46.5225989 C148.645837,47.6431263 148.849009,48.450565 149.255353,48.9449153 C149.661697,49.4392655 150.291198,49.6864407 151.143854,49.6864407 C151.94322,49.6864407 152.52609,49.482109 152.892466,49.0734463 C153.258842,48.6647833 153.44203,48.0451977 153.44203,47.2146893 L153.44203,46.5621469 L151.003965,46.5621469 L151.003965,44.4265537 L156,44.4265537 L156,46.759887 C156,50.2532958 154.341316,52 151.023949,52 C147.679936,52 146.00793,50.1873822 146.00793,46.5621469 Z" id="veelancing_logo"></path>
                </g>
            </g>
        </g>
    </g>
</svg>