<?xml version="1.0" encoding="UTF-8"?>
<svg width="147px" height="38px" viewBox="0 0 147 38" version="1.1" xmlns="http://www.w3.org/2000/svg" xmlns:xlink="http://www.w3.org/1999/xlink">
    <!-- Generator: Sketch 57.1 (83088) - https://sketch.com -->
    <title>Group 2</title>
    <desc>Created with Sketch.</desc>
    <g id="Website" stroke="none" stroke-width="1" fill="none" fill-rule="evenodd">
        <g id="Homepage_Prelaunch" transform="translate(-33.000000, -26.000000)">
            <g id="Header">
                <g id="Top-Menu">
                    <g id="Group-2" transform="translate(30.000000, 25.000000)">
                        <path d="M144.120233,17.6984888 C145.095967,17.6984888 145.848084,17.9979087 146.376606,18.5967576 C146.40371,18.623978 146.430813,18.6341855 146.457917,18.6273804 C146.48502,18.6205753 146.498572,18.5967578 146.498572,18.5559272 L146.498572,18.1067928 C146.498572,18.0387421 146.522287,17.9808993 146.569719,17.9332636 C146.61715,17.8856279 146.674745,17.8618104 146.742504,17.8618104 L149.629035,17.8618104 C149.696794,17.8618104 149.754388,17.8856279 149.80182,17.9332636 C149.849251,17.9808993 149.872967,18.0387421 149.872967,18.1067928 L149.872967,27.2323871 C149.872967,29.0969847 149.337677,30.4307644 148.26708,31.2337662 C147.196484,32.0367681 145.841319,32.438263 144.201544,32.438263 C143.591711,32.438263 142.948007,32.383823 142.270415,32.2749414 C142.134896,32.2613312 142.067138,32.1728663 142.067138,32.0095438 L142.168776,29.4780591 C142.168776,29.3827877 142.195879,29.3181402 142.250087,29.2841147 C142.304294,29.2500892 142.372053,29.2466867 142.453364,29.2739071 C143.00899,29.3963989 143.523952,29.4576439 143.998267,29.4576439 C144.770723,29.4576439 145.380547,29.2807139 145.827759,28.9268487 C146.27497,28.5729834 146.498572,28.0149736 146.498572,27.2528023 L146.356278,27.3957087 C145.868411,27.8856759 145.163726,28.1306559 144.2422,28.1306559 C143.347777,28.1306559 142.527902,27.9333109 141.78255,27.5386151 C141.037198,27.1439192 140.501908,26.4498094 140.176664,25.4562647 C139.959834,24.802975 139.851421,23.9999852 139.851421,23.0472711 C139.851421,21.9992856 139.980161,21.1418558 140.237647,20.474956 C140.549339,19.6311235 141.047362,18.9574286 141.731731,18.4538512 C142.4161,17.9502737 143.212259,17.6984888 144.120233,17.6984888 Z M66.3035748,17.6780736 C67.1979972,17.6780736 67.9975446,17.872016 68.702241,18.2599068 C69.4069375,18.6477975 69.9794947,19.1853924 70.41993,19.8727076 C70.8603653,20.5600227 71.1483378,21.3391951 71.2838564,22.2102479 C71.3516157,22.618554 71.3719431,23.1561489 71.3448394,23.8230487 C71.3312876,23.9863711 71.2432018,24.0680311 71.0805796,24.0680311 L64.8806372,24.0680311 C64.8535335,24.0680311 64.8264302,24.0782386 64.7993265,24.0986539 C64.7722228,24.1190692 64.765447,24.1428868 64.7789988,24.1701071 C64.8061025,24.3198193 64.8738608,24.5171643 64.9822756,24.7621479 C65.1448979,25.0479621 65.3888276,25.2793321 65.7140721,25.4562647 C66.0393166,25.6331973 66.4390903,25.7216623 66.9134052,25.7216623 C67.767172,25.7216623 68.4379788,25.4426574 68.9258455,24.8846391 C68.9800529,24.8165881 69.0410354,24.7825631 69.1087946,24.7825631 C69.1765539,24.7825631 69.2307605,24.8097831 69.2714161,24.8642239 L70.8366474,26.6607615 C70.8908548,26.7015921 70.9179581,26.7560321 70.9179581,26.8240831 C70.9179581,26.8785239 70.8908548,26.9329639 70.8366474,26.9874047 C70.3623325,27.5045923 69.7762236,27.8992823 69.0783031,28.1714863 C68.3803826,28.4436903 67.6181022,28.5797903 66.7914391,28.5797903 C65.5582204,28.5797903 64.5113553,28.3109928 63.6508126,27.7733899 C62.7902698,27.2357869 62.1702818,26.4838346 61.7908299,25.5175103 C61.5062409,24.8370002 61.3639486,23.9863754 61.3639486,22.9656103 C61.3639486,22.2578799 61.4723618,21.57738 61.6891915,20.9240903 C62.0415379,19.9169355 62.6208728,19.1241531 63.4272081,18.5457196 C64.2335434,17.967286 65.1923228,17.6780736 66.3035748,17.6780736 Z M77.6504834,17.6780736 C78.5449058,17.6780736 79.3444532,17.872016 80.0491496,18.2599068 C80.753846,18.6477975 81.3264033,19.1853924 81.7668386,19.8727076 C82.2072738,20.5600227 82.4952464,21.3391951 82.630765,22.2102479 C82.6985242,22.618554 82.7188517,23.1561489 82.691748,23.8230487 C82.6781961,23.9863711 82.5901104,24.0680311 82.4274882,24.0680311 L76.2275458,24.0680311 C76.2004421,24.0680311 76.1733388,24.0782386 76.1462351,24.0986539 C76.1191314,24.1190692 76.1123555,24.1428868 76.1259074,24.1701071 C76.1530111,24.3198193 76.2207694,24.5171643 76.3291842,24.7621479 C76.4918064,25.0479621 76.7357362,25.2793321 77.0609807,25.4562647 C77.3862252,25.6331973 77.7859989,25.7216623 78.2603138,25.7216623 C79.1140806,25.7216623 79.7848873,25.4426574 80.2727541,24.8846391 C80.3269615,24.8165881 80.3879439,24.7825631 80.4557032,24.7825631 C80.5234625,24.7825631 80.5776691,24.8097831 80.6183246,24.8642239 L82.183556,26.6607615 C82.2377634,26.7015921 82.2648667,26.7560321 82.2648667,26.8240831 C82.2648667,26.8785239 82.2377634,26.9329639 82.183556,26.9874047 C81.7092411,27.5045923 81.1231322,27.8992823 80.4252117,28.1714863 C79.7272912,28.4436903 78.9650108,28.5797903 78.1383477,28.5797903 C76.905129,28.5797903 75.8582639,28.3109928 74.9977212,27.7733899 C74.1371784,27.2357869 73.5171904,26.4838346 73.1377384,25.5175103 C72.8531495,24.8370002 72.7108572,23.9863754 72.7108572,22.9656103 C72.7108572,22.2578799 72.8192704,21.57738 73.0361,20.9240903 C73.3884465,19.9169355 73.9677813,19.1241531 74.7741167,18.5457196 C75.580452,17.967286 76.5392313,17.6780736 77.6504834,17.6780736 Z M94.3424065,17.6984888 C95.2503807,17.6984888 96.0702556,17.8516012 96.8020558,18.1578308 C97.5338559,18.4640603 98.1098011,18.8859702 98.5299085,19.4235732 C98.9500139,19.9611761 99.1600666,20.5566135 99.1600666,21.2099031 L99.1600666,28.1714863 C99.1600666,28.2395373 99.1363512,28.2973798 99.0889197,28.3450155 C99.0414883,28.3926512 98.9838937,28.4164687 98.9161345,28.4164687 L96.0296039,28.4164687 C95.9618446,28.4164687 95.9042501,28.3926512 95.8568186,28.3450155 C95.8093871,28.2973798 95.7856718,28.2395373 95.7856718,28.1714863 L95.7856718,27.4569543 C95.7856718,27.4025135 95.7721201,27.371891 95.7450164,27.3650859 C95.7179127,27.3582808 95.6908094,27.3820983 95.6637057,27.4365391 C95.1487352,28.1987104 94.2678779,28.5797903 93.0211073,28.5797903 C91.9369589,28.5797903 91.0730412,28.3246028 90.4293281,27.8142203 C89.785615,27.3038377 89.4637633,26.5518854 89.4637633,25.5583407 C89.4637633,24.5103552 89.82627,23.7005604 90.5512942,23.1289319 C91.2763184,22.5573035 92.3299593,22.2714935 93.7122484,22.2714935 L95.6840334,22.2714935 C95.7517926,22.2714935 95.7856718,22.2374685 95.7856718,22.1694175 L95.7856718,21.7815287 C95.7856718,21.4140533 95.6637069,21.1248409 95.4197735,20.9138827 C95.1758401,20.7029246 94.8370489,20.5974472 94.4033895,20.5974472 C94.078145,20.5974472 93.7969483,20.6586921 93.5597908,20.7811839 C93.3226334,20.9036758 93.1701773,21.0601907 93.102418,21.2507335 C93.0346587,21.4004458 92.9397972,21.4684957 92.8178305,21.4548855 L89.8906446,21.0669967 C89.7280223,21.0397763 89.6467124,20.9785314 89.6467124,20.8832599 C89.7009198,20.2844111 89.9346858,19.7434137 90.3480174,19.2602516 C90.7613489,18.7770894 91.3169666,18.3960095 92.0148871,18.1170004 C92.7128076,17.8379913 93.4886397,17.6984888 94.3424065,17.6984888 Z M117.161673,17.6984888 C118.286477,17.6984888 119.275747,17.9774937 120.129514,18.535512 C120.983281,19.0935302 121.559226,19.8012501 121.857367,20.6586928 C121.95223,20.9036764 122.013212,21.1690713 122.040316,21.4548855 C122.040316,21.6045978 121.965782,21.6930627 121.816712,21.7202831 L118.991164,22.1490023 L118.950509,22.1490023 C118.828542,22.1490023 118.747232,22.0809524 118.706577,21.9448503 L118.665921,21.7611135 C118.638818,21.6522319 118.611714,21.556962 118.584611,21.4753007 C118.462644,21.2167069 118.276309,21.005752 118.025599,20.8424295 C117.77489,20.6791071 117.480142,20.5974472 117.141345,20.5974472 C116.423097,20.5974472 115.948789,20.9172821 115.718408,21.5569615 C115.569337,21.9380472 115.494803,22.4552271 115.494803,23.1085167 C115.494803,23.6937554 115.562561,24.2041303 115.69808,24.6396567 C115.955565,25.333777 116.436649,25.6808319 117.141345,25.6808319 C117.493694,25.6808319 117.798606,25.5889644 118.056091,25.4052267 C118.313576,25.221489 118.496523,24.9594965 118.604938,24.6192415 C118.61849,24.5920211 118.625266,24.5511911 118.625266,24.4967503 C118.638818,24.4831401 118.645594,24.4559201 118.645594,24.4150895 C118.686249,24.2517671 118.781111,24.1837171 118.930181,24.2109375 L121.776056,24.6600719 C121.911575,24.6872923 121.979333,24.7621473 121.979333,24.8846391 C121.979333,25.0887921 121.938678,25.3133571 121.857367,25.5583407 C121.532123,26.5110548 120.946014,27.2527996 120.099023,27.7835975 C119.252032,28.3143953 118.272925,28.5797903 117.161673,28.5797903 C116.050421,28.5797903 115.07809,28.3007853 114.244651,27.7427671 C113.411212,27.1847488 112.818327,26.415784 112.465979,25.4358495 C112.208494,24.7825598 112.079753,23.999985 112.079753,23.0881015 C112.079753,22.176218 112.208494,21.3936432 112.465979,20.7403535 C112.804775,19.7876395 113.394272,19.0424921 114.234487,18.5048892 C115.074702,17.9672862 116.050421,17.6984888 117.161673,17.6984888 Z M53.1080059,14.1258288 C53.2570763,14.1258288 53.3519378,14.1938788 53.3925934,14.3299808 L55.7302766,23.6188967 C55.7438284,23.6597273 55.7641559,23.6801423 55.7912596,23.6801423 C55.8183633,23.6801423 55.8386908,23.6597273 55.8522427,23.6188967 L58.1492705,14.3299808 C58.189926,14.1938788 58.2847876,14.1258288 58.433858,14.1258288 L61.48301,14.1258288 C61.5643211,14.1258288 61.6253035,14.1530488 61.6659591,14.2074896 C61.7066147,14.2619304 61.7133905,14.3299804 61.6862868,14.4116416 L57.5191124,28.2123167 C57.4784568,28.3484187 57.3903711,28.4164687 57.2548526,28.4164687 L54.1650452,28.4164687 C54.0295267,28.4164687 53.9414409,28.3484187 53.9007854,28.2123167 L49.794594,14.4116416 L49.7742664,14.3299808 C49.7742664,14.1938788 49.8488004,14.1258288 49.9978708,14.1258288 L53.1080059,14.1258288 Z M87.5268289,14.1258288 C87.5945882,14.1258288 87.6521827,14.1496463 87.6996142,14.197282 C87.7470457,14.2449177 87.7707611,14.3027602 87.7707611,14.3708112 L87.7707611,28.1714863 C87.7707611,28.2395373 87.7470457,28.2973798 87.6996142,28.3450155 C87.6521827,28.3926512 87.5945882,28.4164687 87.5268289,28.4164687 L84.6402983,28.4164687 C84.5725391,28.4164687 84.5149446,28.3926512 84.4675131,28.3450155 C84.4200816,28.2973798 84.3963662,28.2395373 84.3963662,28.1714863 L84.3963662,14.3708112 C84.3963662,14.3027602 84.4200816,14.2449177 84.4675131,14.197282 C84.5149446,14.1496463 84.5725391,14.1258288 84.6402983,14.1258288 L87.5268289,14.1258288 Z M106.768424,17.6984888 C107.825468,17.6984888 108.692774,18.0353362 109.370367,18.7090412 C110.047959,19.3827461 110.386751,20.2980184 110.386751,21.4548855 L110.386751,28.1714863 C110.386751,28.2395373 110.363035,28.2973798 110.315604,28.3450155 C110.268172,28.3926512 110.210578,28.4164687 110.142819,28.4164687 L107.256288,28.4164687 C107.188529,28.4164687 107.130934,28.3926512 107.083503,28.3450155 C107.036071,28.2973798 107.012356,28.2395373 107.012356,28.1714863 L107.012356,22.1898327 C107.012356,21.7270859 106.883615,21.346006 106.62613,21.0465815 C106.368645,20.7471571 106.036629,20.5974472 105.630074,20.5974472 C105.209966,20.5974472 104.871175,20.7437546 104.61369,21.0363739 C104.356204,21.3289933 104.227464,21.7134757 104.227464,22.1898327 L104.227464,28.1714863 C104.227464,28.2395373 104.203748,28.2973798 104.156317,28.3450155 C104.108885,28.3926512 104.051291,28.4164687 103.983532,28.4164687 L101.097001,28.4164687 C101.029242,28.4164687 100.971647,28.3926512 100.924216,28.3450155 C100.876784,28.2973798 100.853069,28.2395373 100.853069,28.1714863 L100.853069,18.1067928 C100.853069,18.0387421 100.876784,17.9808993 100.924216,17.9332636 C100.971647,17.8856279 101.029242,17.8618104 101.097001,17.8618104 L103.983532,17.8618104 C104.051291,17.8618104 104.108885,17.8856279 104.156317,17.9332636 C104.203748,17.9808993 104.227464,18.0387421 104.227464,18.1067928 L104.227464,18.8621552 C104.227464,18.916596 104.237627,18.9472185 104.257955,18.9540236 C104.278283,18.9608287 104.301998,18.9438162 104.329102,18.9029856 C104.844073,18.0999837 105.657172,17.6984888 106.768424,17.6984888 Z M126.924764,17.8618104 C126.992523,17.8618104 127.050118,17.8856279 127.097549,17.9332636 C127.144981,17.9808993 127.168696,18.0387418 127.168696,18.1067928 L127.168696,28.1714863 C127.168696,28.2395369 127.144981,28.2973798 127.097549,28.3450155 C127.050118,28.3926512 126.992523,28.4164687 126.924764,28.4164687 L124.038234,28.4164687 C123.970474,28.4164687 123.91288,28.3926512 123.865448,28.3450155 C123.818017,28.2973798 123.794301,28.2395369 123.794301,28.1714863 L123.794301,18.1067928 C123.794301,18.0387418 123.818017,17.9808993 123.865448,17.9332636 C123.91288,17.8856279 123.970474,17.8618104 124.038234,17.8618104 L126.924764,17.8618104 Z M134.878692,17.6984888 C135.935736,17.6984888 136.803042,18.0353362 137.480635,18.7090412 C138.158228,19.3827461 138.497019,20.2980184 138.497019,21.4548855 L138.497019,28.1714863 C138.497019,28.2395373 138.473303,28.2973798 138.425872,28.3450155 C138.37844,28.3926512 138.320846,28.4164687 138.253087,28.4164687 L135.366556,28.4164687 C135.298797,28.4164687 135.241202,28.3926512 135.193771,28.3450155 C135.146339,28.2973798 135.122624,28.2395373 135.122624,28.1714863 L135.122624,22.1898327 C135.122624,21.7270859 134.993883,21.346006 134.736398,21.0465815 C134.478913,20.7471571 134.146897,20.5974472 133.740342,20.5974472 C133.320234,20.5974472 132.981443,20.7437546 132.723958,21.0363739 C132.466473,21.3289933 132.337732,21.7134757 132.337732,22.1898327 L132.337732,28.1714863 C132.337732,28.2395373 132.314016,28.2973798 132.266585,28.3450155 C132.219153,28.3926512 132.161559,28.4164687 132.0938,28.4164687 L129.207269,28.4164687 C129.13951,28.4164687 129.081915,28.3926512 129.034484,28.3450155 C128.987052,28.2973798 128.963337,28.2395373 128.963337,28.1714863 L128.963337,18.1067928 C128.963337,18.0387421 128.987052,17.9808993 129.034484,17.9332636 C129.081915,17.8856279 129.13951,17.8618104 129.207269,17.8618104 L132.0938,17.8618104 C132.161559,17.8618104 132.219153,17.8856279 132.266585,17.9332636 C132.314016,17.9808993 132.337732,18.0387421 132.337732,18.1067928 L132.337732,18.8621552 C132.337732,18.916596 132.347896,18.9472185 132.368223,18.9540236 C132.388551,18.9608287 132.412267,18.9438162 132.43937,18.9029856 C132.954341,18.0999837 133.76744,17.6984888 134.878692,17.6984888 Z M95.6840334,24.1088615 L94.4643726,24.1088615 C93.9494021,24.1088615 93.5530163,24.1973265 93.2752033,24.3742591 C92.9973903,24.5511917 92.8584859,24.8165867 92.8584859,25.1704519 C92.8584859,25.4698748 92.9601232,25.7080513 93.1634011,25.8849839 C93.3666779,26.0619165 93.6512635,26.1503815 94.0171636,26.1503815 C94.5321341,26.1503815 94.9556232,26.017684 95.2876436,25.7522851 C95.619664,25.4868862 95.7856718,25.1364288 95.7856718,24.7009023 L95.7856718,24.2109375 C95.7856718,24.1428865 95.7517926,24.1088615 95.6840334,24.1088615 Z M144.913013,20.5974472 C144.276076,20.5974472 143.822095,20.9172821 143.551058,21.5569615 C143.347781,21.9380472 143.246143,22.4416171 143.246143,23.0676863 C143.246143,23.7345862 143.334229,24.2245461 143.510403,24.5375807 C143.63237,24.8233949 143.815317,25.0547649 144.05925,25.2316975 C144.303184,25.4086301 144.594544,25.4970951 144.933341,25.4970951 C145.624485,25.4970951 146.085241,25.1840652 146.315623,24.5579959 C146.43759,24.2449613 146.498572,23.7345864 146.498572,23.0268559 C146.498572,22.6593805 146.48502,22.3701681 146.457917,22.1592099 C146.430813,21.9482518 146.376606,21.7475044 146.295295,21.5569615 C146.18688,21.2575371 146.014097,21.0227647 145.776939,20.8526371 C145.539782,20.6825096 145.251809,20.5974472 144.913013,20.5974472 Z M66.3035748,20.5974472 C65.5988784,20.5974472 65.1313464,20.9308921 64.9009649,21.5977919 C64.8467575,21.7475042 64.8128784,21.8904091 64.7993265,22.0265111 C64.7722228,22.0945621 64.7993261,22.1285871 64.8806372,22.1285871 L67.7671678,22.1285871 C67.8213752,22.1285871 67.8484785,22.1013671 67.8484785,22.0469263 C67.8484785,21.9380447 67.8213752,21.8019448 67.7671678,21.6386223 C67.6723048,21.2983673 67.4995199,21.0397774 67.2488119,20.8628447 C66.9981026,20.6859121 66.6830267,20.5974472 66.3035748,20.5974472 Z M77.6504834,20.5974472 C76.945787,20.5974472 76.478255,20.9308921 76.2478735,21.5977919 C76.1936661,21.7475042 76.1597869,21.8904091 76.1462351,22.0265111 C76.1191314,22.0945621 76.1462347,22.1285871 76.2275458,22.1285871 L79.1140763,22.1285871 C79.1682838,22.1285871 79.1953871,22.1013671 79.1953871,22.0469263 C79.1953871,21.9380447 79.1682838,21.8019448 79.1140763,21.6386223 C79.0192134,21.2983673 78.8464284,21.0397774 78.5957205,20.8628447 C78.3450112,20.6859121 78.0299353,20.5974472 77.6504834,20.5974472 Z M125.501827,13.3704664 C126.016797,13.3704664 126.440286,13.5337864 126.772307,13.8604312 C127.104327,14.187076 127.270335,14.615791 127.270335,15.1465888 C127.270335,15.6501663 127.104327,16.0720762 126.772307,16.4123312 C126.440286,16.7525862 126.016797,16.9227112 125.501827,16.9227112 C124.986856,16.9227112 124.563367,16.7559887 124.231347,16.4225388 C123.899326,16.0890889 123.733318,15.6637765 123.733318,15.1465888 C123.733318,14.615791 123.899326,14.187076 124.231347,13.8604312 C124.563367,13.5337864 124.986856,13.3704664 125.501827,13.3704664 Z" id="Combined-Shape" fill="#FFFFFF"></path>
                        <g id="Group" transform="translate(0.000000, 0.000000)">
                            <path d="M48.2531309,5.52708713 L28.1885459,37.2412679 C27.5979862,38.1747094 26.3625392,38.45267 25.4290977,37.8621103 C25.1787199,37.703704 24.9666639,37.4916484 24.8082571,37.2412709 L18.671351,27.5412861 C18.2582061,26.8882699 18.2582091,26.0556752 18.6713587,25.402662 L32.5993413,3.38846604 C32.9659389,2.80903171 33.6038109,2.45778424 34.289477,2.45778424 L46.5629855,2.45778424 C47.667555,2.45778424 48.5629855,3.35321474 48.5629855,4.45778424 C48.5629855,4.83636074 48.4555373,5.20716247 48.2531309,5.52708713 Z" id="Shape" fill="#EBEBEC" opacity="0.600725446"></path>
                            <path d="M23.9325766,19.7099129 C14.469176,16.6064687 6.99717229,19.6572282 1.51656544,28.8621915 C0.835388038,24.2476905 1.82449856,12.9421055 11.9352076,5.80346044 C18.0599006,1.4791337 25.7926659,0.572799566 35.1335036,3.08445804 C36.200197,3.37126493 36.8324042,4.4685028 36.5455821,5.53519212 C36.4754769,5.79591269 36.353311,6.03974057 36.1864467,6.25198159 L26.1280658,19.045616 C25.6085445,19.7064081 24.7312886,19.9718439 23.9325766,19.7099129 Z" id="Fill-1-Copy-13" fill="#FFFFFF" transform="translate(19.673776, 15.281205) scale(-1, 1) rotate(-5.000000) translate(-19.673776, -15.281205) "></path>
                        </g>
                    </g>
                </g>
            </g>
        </g>
    </g>
</svg>